<svg xmlns="http://www.w3.org/2000/svg" width="134" height="128" fill="none"><path fill="url(#a)" d="M67.81 31.142a.7.7 0 0 0-.244.043.6.6 0 0 0-.197.116.4.4 0 0 0-.113.168.33.33 0 0 0-.009.188L92.888 128a66.6 66.6 0 0 0 30.067-25.839L68.318 31.355a.54.54 0 0 0-.215-.157.7.7 0 0 0-.292-.056"/><path fill="#fff" d="M66.56 0C29.8 0 0 29.872 0 66.72a66.83 66.83 0 0 0 10.164 35.438L65.658 30.24c.398-.52 1.403-.52 1.8 0l55.497 71.921a66.85 66.85 0 0 0 10.165-35.44C133.12 29.87 103.321 0 66.56 0"/><defs><linearGradient id="a" x1="1.371" x2="37.876" y1="0" y2="131.392" gradientUnits="userSpaceOnUse"><stop stop-color="#fff" stop-opacity="0"/><stop offset=".495" stop-color="#fff" stop-opacity=".3"/><stop offset="1" stop-color="#fff" stop-opacity=".3"/></linearGradient></defs></svg>