<svg xmlns="http://www.w3.org/2000/svg" width="129" height="128" fill="none"><g clip-path="url(#a)"><path fill="#fff" fill-rule="evenodd" d="M47.196 2.383A64 64 0 0 1 128.5 63.996v5.9A22.7 22.7 0 0 1 86 80.997C80.73 88.27 72.167 93 62.5 93c-16.017 0-29-12.984-29-29s12.983-29 29-29c8.056 0 15.345 3.285 20.6 8.588v-3.192a5 5 0 1 1 10 0v29.5a12.7 12.7 0 1 0 25.4 0v-5.9A54.003 54.003 0 0 0 26.645 25.49a54 54 0 0 0 70.687 81.382 5.001 5.001 0 0 1 6.08 7.94 64.01 64.01 0 0 1-61.012 9.252 64.001 64.001 0 0 1 4.796-121.68M62.5 45c-10.494 0-19 8.506-19 19s8.506 19 19 19 19-8.506 19-19-8.507-19-19-19" clip-rule="evenodd"/></g><defs><clipPath id="a"><path fill="#fff" d="M.5 0h128v128H.5z"/></clipPath></defs></svg>