<svg xmlns="http://www.w3.org/2000/svg" width="131" height="128" fill="none"><path fill="#fff" fill-rule="evenodd" d="M65.138 0C29.118 0 0 29.333 0 65.622c0 29.008 18.657 53.563 44.54 62.253 3.236.654 4.421-1.412 4.421-3.149 0-1.521-.106-6.736-.106-12.169-18.12 3.912-21.894-7.823-21.894-7.823-2.912-7.605-7.226-9.56-7.226-9.56-5.931-4.02.432-4.02.432-4.02 6.578.435 10.03 6.736 10.03 6.736 5.823 9.995 15.206 7.171 18.98 5.432.539-4.237 2.266-7.17 4.099-8.8-14.452-1.521-29.657-7.17-29.657-32.377 0-7.17 2.586-13.037 6.685-17.6-.647-1.63-2.912-8.367.648-17.384 0 0 5.5-1.738 17.901 6.736a62.6 62.6 0 0 1 16.285-2.173c5.5 0 11.107.761 16.284 2.173 12.403-8.474 17.903-6.736 17.903-6.736 3.56 9.017 1.293 15.755.647 17.384 4.206 4.563 6.686 10.43 6.686 17.6 0 25.207-15.205 30.747-29.765 32.377 2.373 2.064 4.421 5.975 4.421 12.168 0 8.8-.106 15.863-.106 18.035 0 1.738 1.186 3.804 4.421 3.152 25.883-8.694 44.54-33.247 44.54-62.255C130.275 29.333 101.05 0 65.139 0Z" clip-rule="evenodd"/></svg>