<svg xmlns="http://www.w3.org/2000/svg" width="123" height="128" fill="none"><path fill="#fff" d="M121.554 28.338c-1.88-13.753-14.058-24.591-28.495-26.692C90.623 1.292 81.395 0 60.017 0h-.16c-21.383 0-25.97 1.292-28.406 1.646C17.416 3.688 4.6 13.427 1.49 27.343-.006 34.196-.166 41.794.112 48.763.508 58.76.585 68.737 1.508 78.69a139 139 0 0 0 3.328 19.63c2.956 11.926 14.921 21.851 26.645 25.9a72.55 72.55 0 0 0 38.983 2.025 58 58 0 0 0 4.22-1.135c3.14-.983 6.823-2.082 9.53-4.014a.3.3 0 0 0 .125-.232v-9.646a.28.28 0 0 0-.111-.22.3.3 0 0 0-.116-.054.3.3 0 0 0-.128 0 109.7 109.7 0 0 1-25.297 2.909c-14.661 0-18.604-6.847-19.734-9.698a29.7 29.7 0 0 1-1.714-7.644.28.28 0 0 1 .104-.232.29.29 0 0 1 .25-.053 107.6 107.6 0 0 0 24.884 2.908c2.016 0 4.026 0 6.042-.052 8.43-.233 17.316-.657 25.61-2.251.207-.041.414-.076.591-.128 13.083-2.473 25.533-10.234 26.799-29.886.047-.773.165-8.104.165-8.907.006-2.728.893-19.355-.13-29.571Zm-20.136 49.037H87.661v-33.16c0-6.982-2.956-10.542-8.968-10.542-6.61 0-9.92 4.212-9.92 12.531v18.151H55.099v-18.15c0-8.32-3.317-12.532-9.926-12.532-5.977 0-8.963 3.56-8.969 10.541v33.161H22.46V43.208q0-10.471 5.433-16.639c3.736-4.101 8.637-6.207 14.72-6.207 7.042 0 12.362 2.664 15.91 7.988l3.423 5.654 3.429-5.654c3.547-5.324 8.867-7.988 15.897-7.988 6.077 0 10.978 2.106 14.726 6.207q5.433 6.162 5.433 16.639l-.012 34.167Z"/></svg>