<svg width="128" height="128" version="1.0" style="display:inline;enable-background:new" xml:space="preserve" xmlns:xlink="http://www.w3.org/1999/xlink" xmlns="http://www.w3.org/2000/svg"><defs><linearGradient x1="0" y1="0" x2="128" y2="0" id="a" gradientUnits="userSpaceOnUse" gradientTransform="translate(-.398 -172.001)"><stop offset="0" stop-color="#fff" style="stop-color:#241f31;stop-opacity:1"/><stop offset="1" stop-color="#fff" stop-opacity="0" style="stop-color:#241f31;stop-opacity:0"/></linearGradient><linearGradient xlink:href="#a" id="q" x1="56" y1="224.002" x2="84" y2="224.002" gradientTransform="rotate(180 60.113 63.908)"/><linearGradient id="p" x1="56" x2="84" xlink:href="#a" y1="224.002" y2="224.002" gradientTransform="translate(-6.978 -.181)"/><linearGradient x1="-79.382" y1="305.059" x2="-36.522" y2="230.825" id="c" gradientTransform="rotate(-15 -704.812 -271.34)" gradientUnits="userSpaceOnUse"><stop offset="0" stop-color="#c061cb" style="stop-color:#ff7800;stop-opacity:1"/><stop offset="1" stop-color="#3584e4" style="stop-color:#f6d32d;stop-opacity:1"/></linearGradient><linearGradient x1="19" y1="47" x2="14" y2="47" id="d" gradientUnits="userSpaceOnUse"><stop offset="0" stop-opacity=".216"/><stop offset="1" stop-opacity="0"/></linearGradient><linearGradient x1="28" y1="-274" x2="116" y2="-274" id="e" gradientTransform="rotate(180 68 -86)" gradientUnits="userSpaceOnUse"><stop offset="0" stop-color="#c0bfbc"/><stop offset=".045" stop-color="#f6f5f4"/><stop offset=".091" stop-color="#deddda"/><stop offset=".909" stop-color="#deddda"/><stop offset=".955" stop-color="#f6f5f4"/><stop offset="1" stop-color="#c0bfbc"/></linearGradient><linearGradient x1="20" y1="98.337" x2="25.738" y2="98.337" id="f" gradientUnits="userSpaceOnUse"><stop offset="0" stop-color="#deddda"/><stop offset=".28" stop-color="#fbfbfa"/><stop offset=".568" stop-color="#faf9f8"/><stop offset="1" stop-color="#f8f6f4"/></linearGradient><linearGradient x1="96.838" y1="24.838" x2="101.618" y2="20.058" id="g" gradientUnits="userSpaceOnUse"><stop offset="0" stop-color="#deddda"/><stop offset="1" stop-color="#f3f2ef"/></linearGradient><linearGradient x1="84.644" y1="35.269" x2="95.271" y2="24.643" id="h" gradientUnits="userSpaceOnUse"><stop offset="0" stop-color="#fff"/><stop offset=".342" stop-color="#ececec"/><stop offset=".7" stop-color="#e8e8e8"/><stop offset="1" stop-color="#fff"/></linearGradient><linearGradient x1="21.751" y1="117.006" x2="44.91" y2="117.006" id="i" gradientUnits="userSpaceOnUse"><stop offset="0" stop-color="#b0b0b0"/><stop offset="1" stop-color="#deddda"/></linearGradient><linearGradient x1="35" y1="116" x2="81" y2="116" id="j" gradientUnits="userSpaceOnUse"><stop offset="0" stop-color="#c0bfbc"/><stop offset="1" stop-color="#c0bfbc" stop-opacity="0"/></linearGradient><linearGradient id="k" x1="43" x2="79" xlink:href="#b" y1="116" y2="116"/><linearGradient x1="0" y1="0" x2="128" y2="0" id="b" gradientUnits="userSpaceOnUse"><stop offset="0" stop-color="#f6f5f4" stop-opacity="0"/><stop offset=".517" stop-color="#f6f5f4"/><stop offset="1" stop-color="#f6f5f4" stop-opacity="0"/></linearGradient><linearGradient x1="38.812" y1="120.254" x2="38.812" y2="122.834" id="l" gradientUnits="userSpaceOnUse"><stop offset="0" stop-opacity=".525"/><stop offset="1" stop-opacity="0"/></linearGradient><linearGradient x1="108" y1="88.644" x2="112.754" y2="88.468" id="m" gradientUnits="userSpaceOnUse"><stop offset="0" stop-opacity=".243"/><stop offset="1" stop-opacity="0"/></linearGradient><linearGradient id="n" x1="62.479" x2="98.479" xlink:href="#b" y1="118" y2="118"/><linearGradient x1="74.519" y1="116" x2="108" y2="116" id="o" gradientUnits="userSpaceOnUse"><stop offset="0" stop-color="#f6f5f4" stop-opacity="0"/><stop offset=".517" stop-color="#c0bfbc"/><stop offset="1" stop-color="#f6f5f4" stop-opacity="0"/></linearGradient></defs><g style="display:inline;fill:none;enable-background:new"><g style="fill:#000"><path d="M12.977 24.297 82.52 5.66a8.005 8.005 0 0 1 9.8 5.66l22.774 85a7.998 7.998 0 0 1-5.656 9.797l-69.547 18.637c-4.266 1.144-8.653-1.391-9.797-5.656L7.316 34.094a8.003 8.003 0 0 1 5.661-9.797zm0 0" fill="url(#c)" style="fill:url(#c)" class="fills" transform="translate(-.008 .009)"/><path d="m20.145 22.328-7.235 1.938a7.983 7.983 0 0 0-5.656 9.797l12.891 48.101zm0 0" fill="url(#d)" style="opacity:.5;fill:url(#d)" class="fills" transform="translate(-.008 .009)"/><path d="M42.684.453 112.23 19.09a8.003 8.003 0 0 1 5.661 9.797l-22.778 85.004a8.004 8.004 0 0 1-9.797 5.656L15.77 100.91a8.003 8.003 0 0 1-5.661-9.797L32.887 6.109A8.004 8.004 0 0 1 42.684.453zm0 0" style="fill:#2ec27e" class="fills" transform="translate(-.008 .009)"/><path d="M28 61h72a8 8 0 0 1 8 8v43a8 8 0 0 1-8 8H28a8 8 0 0 1-8-8V69a8 8 0 0 1 8-8zm0 0" style="fill:#deddda" class="fills" transform="translate(-.008 .009)"/><path d="M100 120H28a8 8 0 0 1-8-8V88a8 8 0 0 1 8-8h72a8 8 0 0 1 8 8v24a8 8 0 0 1-8 8zm0 0" fill="url(#e)" style="fill:url(#e)" class="fills" transform="translate(-.008 .009)"/><path d="M100 15.813v79.839l17.891-66.765a7.986 7.986 0 0 0-5.661-9.797ZM27.988 104.18V24.344L10.102 91.105a7.978 7.978 0 0 0 5.656 9.797zm0 0" style="fill:#2ec27e;fill-opacity:1" class="fills" transform="translate(-.008 .009)"/><path d="M28 8h72c4.434 0 8 3.566 8 8v88c0 4.434-3.566 8-8 8H24c-2.344 0-4 1.953-4 3.754V16c0-4.434 3.566-8 8-8zm0 0" fill="url(#f)" style="fill:url(#f)" class="fills" transform="translate(-.008 .009)"/><path d="m80 8 26 26c2.039 3.137 2 6 2 6V16c0-4.434-3.566-8-8-8zm0 0" fill="url(#g)" style="fill:url(#g)" class="fills" transform="translate(-.008 .009)"/><path d="m105 35.277-25-25v20c0 4.43 3.566 8 8 8h15.797c2.203 0 4.562 2.508 4.203 4a9.935 9.935 0 0 0-3-7zm0 0" fill-opacity=".212" style="fill-opacity:.212" class="fills" transform="translate(-.008 .009)"/><path d="M105 33 80 8v20c0 4.434 3.566 8 8 8h15.797c2.203 0 4.562 2.512 4.203 4a9.934 9.934 0 0 0-3-7zm0 0" fill="url(#h)" style="fill:url(#h)" class="fills" transform="translate(-.008 .009)"/><path d="M35.004 20h32c1.66 0 3 1.344 3 3s-1.34 3-3 3h-32a3.001 3.001 0 0 1 0-6zm-1 12H48a2 2 0 1 1 0 4H34.004c-1.102 0-2-.895-2-2s.898-2 2-2zm0 0" style="fill:#c0bfbc;fill-opacity:1" class="fills" transform="translate(-.008 .009)"/><g style="fill:#000"><path d="M34 76h60a2 2 0 1 1 0 4H34a2 2 0 1 1 0-4zm0 10h60a2 2 0 1 1 0 4H34a2 2 0 1 1 0-4zm0 10h60a2 2 0 1 1 0 4H34a2 2 0 1 1 0-4zm0-30h60a2 2 0 1 1 0 4H34a2 2 0 1 1 0-4zm0 0" style="fill:#c0bfbc" class="fills" transform="translate(-.008 .009)"/></g><path d="M23.754 112h48.492A3.753 3.753 0 0 1 76 115.754v.492A3.753 3.753 0 0 1 72.246 120H23.754A3.753 3.753 0 0 1 20 116.246v-.492A3.753 3.753 0 0 1 23.754 112Zm0 0" fill="url(#i)" style="fill:url(#i)" class="fills" transform="translate(-.008 .009)"/><path d="M24 114h71a2 2 0 1 1 0 4H24a2 2 0 1 1 0-4zm0 0" fill="url(#j)" style="fill:url(#j)" class="fills" transform="translate(-.008 .009)"/><path d="M24.5 116h35a.5.5 0 1 1 0 1h-35a.5.5 0 1 1 0-1zm0 0" style="fill:#deddda" class="fills" transform="translate(-.008 .009)"/><path d="M43.5 115h35a.5.5 0 1 1 0 1h-35a.5.5 0 1 1 0-1zm0 0" fill="url(#k)" style="fill:url(#k)" class="fills" transform="translate(-.008 .009)"/><path d="M30.402 120.023a7.974 7.974 0 0 0 9.446 4.645l17.34-4.645zm0 0" fill="url(#l)" style="opacity:.5;fill:url(#l)" class="fills" transform="translate(-.008 .009)"/><path d="M108 70.727v35.836l1.23-.333a7.978 7.978 0 0 0 5.657-9.796zm0 0" fill="url(#m)" style="opacity:.5;fill:url(#m)" class="fills" transform="translate(-.008 .009)"/><path d="M62.98 117h35a.5.5 0 0 1 0 1h-35a.5.5 0 1 1 0-1zm0 0" fill="url(#n)" style="fill:url(#n)" class="fills" transform="translate(-.008 .009)"/><path d="M75.02 115h27.796c.278 0 .5.223.5.5s-.222.5-.5.5H75.02a.498.498 0 0 1-.5-.5c0-.277.222-.5.5-.5zm0 0" fill="url(#o)" style="fill:url(#o)" class="fills" transform="translate(-.008 .009)"/></g><path d="M21.022 63.818h27.203l-13.6 17zm71.203 0H65.022l13.602-17zm0 0" style="fill:#241f31;fill-opacity:1" class="fills" transform="translate(6.97 .19)"/><path d="M78.623 63.818a23.995 23.995 0 0 1-13.855 21.75 24.006 24.006 0 0 1-25.57-3.363" stroke-linejoin="round" stroke-width="8" stroke="url(#p)" style="fill:none;stroke:url(#q);stroke-linecap:round" class="fills" transform="translate(6.97 .19)"/><path d="M34.624 63.818a23.995 23.995 0 0 1 13.855-21.75 24.006 24.006 0 0 1 25.57 3.363" stroke-linejoin="round" stroke-width="8" stroke="url(#p)" style="fill:none;stroke:url(#p);stroke-linecap:round" class="fills" transform="translate(6.97 .19)"/></g></svg>