<svg width="128" height="128" fill="none" xmlns="http://www.w3.org/2000/svg"><rect x="20" y="8" width="88" height="112" rx="9" fill="url(#a)"/><path fill-rule="evenodd" clip-rule="evenodd" d="M16.693 21.447a9 9 0 0 0-6.364 11.022L30.568 108h45.61l33.753-9.044a9 9 0 0 0 6.364-11.023L95.331 9.693A9 9 0 0 0 84.308 3.33L16.693 21.447ZM64.983 111H31.377a9 9 0 0 0 10.94 6.073L64.982 111Z" fill="#DEDDDA"/><mask id="c" style="mask-type:alpha" maskUnits="userSpaceOnUse" x="10" y="3" width="107" height="115"><path fill-rule="evenodd" clip-rule="evenodd" d="M16.693 21.447a9 9 0 0 0-6.364 11.022L30.568 108h45.61l33.753-9.044a9 9 0 0 0 6.364-11.023L95.331 9.693A9 9 0 0 0 84.308 3.33L16.693 21.447ZM64.983 111H31.377a9 9 0 0 0 10.94 6.073L64.982 111Z" fill="#DEDDDA"/></mask><g filter="url(#b)" mask="url(#c)"><rect x="20" y="8" width="88" height="101" rx="9" fill="#fff"/></g><rect x="20" y="8" width="88" height="100" rx="9" fill="#fff"/><path fill-rule="evenodd" clip-rule="evenodd" d="m61 73 1-15-1-15h6l-1 15 1 15h-6Z" fill="#A51D2D"/><path fill-rule="evenodd" clip-rule="evenodd" d="m49 55 15 1 15-1v6l-15-1-15 1v-6Z" fill="#A51D2D"/><path fill-rule="evenodd" clip-rule="evenodd" d="m55.515 45.272 9.9 11.314 11.313 9.9-4.243 4.242-9.9-11.314-11.313-9.9 4.243-4.242Z" fill="#A51D2D"/><path fill-rule="evenodd" clip-rule="evenodd" d="m76.456 49.243-11.314 9.9-9.9 11.313L51 66.213l11.314-9.9L72.214 45l4.242 4.243ZM91.8 93l.4-6-.4-6h2.4l-.4 6 .4 6h-2.4Z" fill="#A51D2D"/><path fill-rule="evenodd" clip-rule="evenodd" d="m87 85.8 6 .4 6-.4v2.4l-6-.4-6 .4v-2.4Z" fill="#A51D2D"/><path fill-rule="evenodd" clip-rule="evenodd" d="m89.606 81.909 3.96 4.525 4.525 3.96-1.697 1.697-3.96-4.525-4.525-3.96 1.697-1.697Z" fill="#A51D2D"/><path fill-rule="evenodd" clip-rule="evenodd" d="m97.982 83.497-4.525 3.96-3.96 4.525-1.697-1.697 4.526-3.96 3.96-4.525 1.696 1.697Z" fill="#A51D2D"/><circle cx="2" cy="2" r="2" transform="matrix(1 0 0 -1 91 100)" fill="#A51D2D"/><path fill-rule="evenodd" clip-rule="evenodd" d="m33.8 23 .4 6-.4 6h2.4l-.4-6 .4-6h-2.4Z" fill="#A51D2D"/><path fill-rule="evenodd" clip-rule="evenodd" d="m29 30.2 6-.4 6 .4v-2.4l-6 .4-6-.4v2.4Z" fill="#A51D2D"/><path fill-rule="evenodd" clip-rule="evenodd" d="m31.606 34.091 3.96-4.525 4.525-3.96-1.697-1.697-3.96 4.525-4.525 3.96 1.697 1.697Z" fill="#A51D2D"/><path fill-rule="evenodd" clip-rule="evenodd" d="m39.982 32.503-4.525-3.96-3.96-4.525-1.697 1.697 4.525 3.96 3.96 4.525 1.697-1.697Z" fill="#A51D2D"/><circle cx="35" cy="18" r="2" fill="#A51D2D"/><path fill="url(#d)" d="M61 111h43v2H61z"/><path fill="url(#e)" d="M61 115h43v2H61z"/><defs><linearGradient id="a" x1="20" y1="120" x2="108" y2="120" gradientUnits="userSpaceOnUse"><stop stop-color="#9A9996"/><stop offset=".068" stop-color="#C0BFBC"/><stop offset=".193" stop-color="#9A9996"/><stop offset=".807" stop-color="#9A9996"/><stop offset=".932" stop-color="#C0BFBC"/><stop offset="1" stop-color="#9A9996"/></linearGradient><linearGradient id="d" x1="61" y1="113" x2="104" y2="113" gradientUnits="userSpaceOnUse"><stop stop-color="#C0BFBC" stop-opacity="0"/><stop offset=".917" stop-color="#C0BFBC"/><stop offset="1" stop-color="#C0BFBC" stop-opacity="0"/></linearGradient><linearGradient id="e" x1="61" y1="117" x2="104" y2="117" gradientUnits="userSpaceOnUse"><stop stop-color="#C0BFBC" stop-opacity="0"/><stop offset=".917" stop-color="#C0BFBC"/><stop offset="1" stop-color="#C0BFBC" stop-opacity="0"/></linearGradient><filter id="b" x="12" y="0" width="104" height="117" filterUnits="userSpaceOnUse" color-interpolation-filters="sRGB"><feFlood flood-opacity="0" result="BackgroundImageFix"/><feColorMatrix in="SourceAlpha" values="0 0 0 0 0 0 0 0 0 0 0 0 0 0 0 0 0 0 127 0" result="hardAlpha"/><feOffset/><feGaussianBlur stdDeviation="4"/><feComposite in2="hardAlpha" operator="out"/><feColorMatrix values="0 0 0 0 0 0 0 0 0 0 0 0 0 0 0 0 0 0 0.15 0"/><feBlend in2="BackgroundImageFix" result="effect1_dropShadow_1_2"/><feBlend in="SourceGraphic" in2="effect1_dropShadow_1_2" result="shape"/></filter></defs></svg>