<svg xmlns="http://www.w3.org/2000/svg" width="48" height="48" fill="none" aria-hidden="true" style="display:block"><path fill="currentColor" fill-rule="evenodd" d="M42.662 37.412q.02.111.036.224l-.002.002q.06.405.105.811H6q.056-.519.142-1.035a18.45 18.45 0 0 1 3.182-7.7 18.7 18.7 0 0 1 5.325-5l-.004-.008-.005-.008-.558-.963-.557-.962-1.09-1.88-.781-1.35a1.696 1.696 0 0 1 .598-2.304 1.69 1.69 0 0 1 2.327.605l.782 1.35 1.09 1.88 1.114 1.924.114.197q.315-.125.636-.236a18.5 18.5 0 0 1 6.087-1.026c2.321 0 4.542.428 6.589 1.209l.131.051.038.015q.06-.106.122-.21.278-.483.557-.963l.557-.962 1.09-1.88.781-1.35a1.69 1.69 0 0 1 3.143.657 1.7 1.7 0 0 1-.217 1.042l-.782 1.35-1.09 1.88-1.114 1.924-.02.036a18.5 18.5 0 0 1 5.293 4.98q.748 1.05 1.343 2.193a18.5 18.5 0 0 1 1.84 5.507m-8.45-6.59c.605.91.498 2.044-.239 2.534-.736.491-1.823.151-2.427-.758-.604-.91-.497-2.044.239-2.534s1.823-.151 2.427.758m-17.163-.756c.736.491.843 1.626.239 2.535-.605.91-1.692 1.25-2.428.758-.736-.49-.843-1.625-.239-2.534.604-.91 1.691-1.249 2.428-.759" clip-rule="evenodd"/></svg>