<svg
    style="display: block"
    alt="Apple"
    aria-hidden="true"
    xmlns="http://www.w3.org/2000/svg"
    width="48"
    height="48"
    fill="none"
>
    <path
        fill="currentColor"
        d="M37.11 15.932c-.2.157-3.723 2.176-3.723 6.667 0 5.194 4.482 7.032 4.616 7.077-.02.112-.712 2.517-2.363 4.967-1.472 2.155-3.01 4.308-5.349 4.308s-2.94-1.383-5.64-1.383c-2.632 0-3.568 1.428-5.707 1.428-2.14 0-3.633-1.995-5.35-4.445C11.607 31.675 10 27.205 10 22.963c0-6.804 4.348-10.413 8.627-10.413 2.274 0 4.17 1.52 5.597 1.52 1.358 0 3.477-1.61 6.064-1.61.98 0 4.503.09 6.821 3.471m-8.05-6.353c1.07-1.292 1.827-3.084 1.827-4.876 0-.248-.021-.5-.066-.703-1.74.066-3.811 1.18-5.06 2.653-.98 1.134-1.895 2.926-1.895 4.743 0 .272.045.545.065.633.11.021.29.046.468.046 1.562 0 3.526-1.064 4.66-2.496"
    />
</svg>
