<svg
    style="display: block"
    alt="Linux"
    aria-hidden="true"
    xmlns="http://www.w3.org/2000/svg"
    width="48"
    height="48"
    fill="none"
>
    <path
        fill="currentColor"
        d="M25.018 4q-.36.001-.74.032c-6.515.514-4.787 7.411-4.887 9.71-.118 1.683-.463 3.01-1.62 4.656-1.364 1.62-3.278 4.24-4.186 6.97-.429 1.282-.633 2.596-.443 3.837a.7.7 0 0 0-.17.208c-.4.413-.693.925-1.022 1.293-.306.307-.747.412-1.228.617-.483.21-1.015.415-1.332 1.048-.139.292-.21.608-.204.928 0 .307.042.617.085.827.09.615.179 1.122.062 1.495-.384 1.048-.432 1.765-.164 2.288.269.515.825.724 1.45.927 1.248.308 2.944.208 4.276.925 1.428.718 2.877 1.032 4.033.724a2.73 2.73 0 0 0 1.862-1.458c.905-.005 1.897-.415 3.485-.515 1.077-.09 2.426.411 3.972.308.039.207.098.305.176.514l.005.004c.603 1.2 1.716 1.745 2.904 1.651 1.189-.092 2.455-.826 3.48-2.013.973-1.18 2.594-1.671 3.666-2.317.536-.307.97-.723 1-1.315.036-.617-.308-1.25-1.1-2.122v-.15l-.005-.004c-.262-.308-.385-.825-.521-1.427-.131-.619-.28-1.212-.758-1.613h-.005c-.091-.083-.19-.103-.29-.208a.55.55 0 0 0-.293-.099c.665-1.97.407-3.931-.267-5.695-.821-2.174-2.258-4.067-3.353-5.37-1.227-1.549-2.43-3.016-2.405-5.192.04-3.317.364-9.455-5.463-9.464m.815 5.25h.02c.329 0 .61.095.9.305.293.208.51.511.676.821.162.4.243.708.256 1.117 0-.031.009-.062.009-.093v.162a.1.1 0 0 1-.006-.032l-.006-.037a2.8 2.8 0 0 1-.232 1.088c-.072.193-.183.37-.328.516a1 1 0 0 0-.136-.064c-.16-.07-.305-.099-.437-.205a2 2 0 0 0-.34-.102c.077-.093.225-.205.282-.305q.123-.299.136-.62v-.031a1.9 1.9 0 0 0-.094-.617c-.07-.206-.156-.308-.282-.513-.13-.102-.258-.203-.412-.203h-.024c-.144 0-.272.046-.404.203-.147.143-.255.32-.316.515a1.8 1.8 0 0 0-.14.617v.029q.005.207.032.412c-.298-.104-.675-.209-.936-.312a3 3 0 0 1-.028-.308v-.031a2.7 2.7 0 0 1 .232-1.184c.125-.339.358-.627.662-.822.264-.2.585-.306.916-.307m-4.566.09h.055c.22 0 .416.074.615.208.225.2.407.444.53.717.14.307.216.617.237 1.029v.006c.01.206.009.308-.003.41v.123c-.047.011-.087.028-.128.037-.235.085-.423.208-.606.309q.027-.21.004-.412v-.023c-.018-.205-.061-.309-.126-.514a.94.94 0 0 0-.256-.411.38.38 0 0 0-.282-.099h-.033c-.109.01-.2.062-.286.204a.85.85 0 0 0-.185.416 1.5 1.5 0 0 0-.036.509v.023c.019.208.057.308.124.515a.96.96 0 0 0 .256.413q.02.022.052.037c-.108.088-.18.108-.271.21a.5.5 0 0 1-.202.104q-.241-.29-.424-.62a2.7 2.7 0 0 1-.24-1.028 2.7 2.7 0 0 1 .124-1.03c.085-.303.234-.584.436-.824.198-.205.401-.309.645-.309m2.112 2.63c.512 0 1.13.1 1.874.615.452.309.807.415 1.622.722h.005c.393.21.624.41.737.615v-.202a.88.88 0 0 1 .024.725c-.19.478-.795.991-1.638 1.298v.003c-.413.208-.773.513-1.195.717-.426.208-.907.45-1.56.412a1.8 1.8 0 0 1-.69-.104 6 6 0 0 1-.497-.305c-.3-.208-.56-.512-.944-.717v-.008h-.008c-.616-.379-.95-.789-1.057-1.094-.108-.413-.008-.725.297-.925.346-.208.586-.418.745-.518.16-.114.22-.158.271-.202h.004v-.005c.26-.311.672-.724 1.293-.926.214-.056.453-.1.718-.1zm4.316 3.303c.552 2.184 1.844 5.357 2.675 6.896.441.823 1.318 2.557 1.7 4.662.24-.008.508.027.79.098.996-2.576-.842-5.345-1.679-6.114-.339-.308-.358-.517-.19-.517.91.824 2.105 2.424 2.538 4.25.2.826.247 1.703.032 2.576.104.043.209.092.317.103 1.59.823 2.178 1.446 1.896 2.37v-.067c-.093-.005-.185 0-.278 0h-.024c.232-.72-.28-1.272-1.642-1.887-1.41-.617-2.538-.518-2.729.717-.012.066-.02.102-.028.208-.105.035-.214.082-.322.099-.663.413-1.02 1.031-1.223 1.83-.2.821-.262 1.782-.316 2.881v.005c-.03.514-.262 1.291-.491 2.08-2.313 1.654-5.52 2.372-8.245.516a4 4 0 0 0-.62-.822 2.2 2.2 0 0 0-.424-.513c.28 0 .521-.047.717-.104a.95.95 0 0 0 .484-.514c.167-.412 0-1.075-.532-1.794s-1.435-1.533-2.756-2.344c-.971-.617-1.52-1.342-1.773-2.153-.255-.823-.22-1.672-.023-2.535.377-1.65 1.346-3.253 1.964-4.26.165-.1.057.208-.63 1.501-.61 1.158-1.757 3.85-.187 5.942.059-1.526.397-3.03.997-4.434.87-1.97 2.687-5.402 2.83-8.121.075.055.335.208.446.311.336.205.586.514.91.717.323.31.735.516 1.35.516q.09.009.17.01c.635 0 1.125-.207 1.537-.414.447-.206.802-.514 1.14-.616h.008c.72-.208 1.288-.62 1.61-1.08zm3.369 13.81c.057.925.529 1.92 1.36 2.123.906.206 2.21-.514 2.76-1.18l.326-.015c.486-.01.89.015 1.306.413l.005.005c.32.307.47.817.602 1.35.131.617.238 1.203.63 1.644.75.812.995 1.396.981 1.757l.005-.01v.027l-.005-.017c-.023.404-.285.61-.767.916-.972.618-2.692 1.098-3.788 2.42-.953 1.137-2.112 1.758-3.139 1.837-1.024.081-1.907-.309-2.427-1.385l-.007-.005c-.324-.616-.185-1.58.086-2.605.271-1.03.66-2.072.714-2.924.057-1.101.117-2.059.3-2.797.185-.717.475-1.229.989-1.517l.069-.034zm-16.672.076h.016q.123 0 .242.021c.58.085 1.088.513 1.577 1.16l1.403 2.565.005.004c.374.822 1.162 1.64 1.833 2.524.669.922 1.187 1.744 1.124 2.42v.01c-.088 1.147-.74 1.77-1.735 1.995-.994.208-2.343.003-3.692-.716-1.492-.826-3.265-.723-4.405-.928q-.853-.153-1.114-.617c-.17-.308-.175-.928.19-1.896v-.006l.002-.005c.18-.514.047-1.159-.041-1.723-.085-.618-.128-1.095.066-1.45.247-.514.61-.616 1.064-.821.453-.208.986-.311 1.41-.725h.004v-.003c.394-.413.686-.926 1.03-1.291.292-.31.585-.518 1.021-.518m11.037-13.99c-.67.31-1.457.825-2.294.825-.835 0-1.495-.412-1.973-.718-.238-.207-.432-.413-.575-.517-.253-.206-.222-.513-.114-.513.168.025.199.207.307.308.148.102.331.309.555.514.45.308 1.048.72 1.799.72.747 0 1.623-.412 2.155-.719.3-.208.686-.515.999-.72.24-.21.23-.411.43-.411.197.024.052.206-.227.511q-.513.389-1.063.722zm-1.668-2.44v-.034c-.01-.03.02-.065.045-.077.114-.066.277-.042.4.006.098 0 .247.103.232.208-.01.076-.131.102-.208.102-.085 0-.142-.066-.218-.105-.08-.028-.225-.012-.25-.1m-.85 0c-.03.09-.174.076-.255.102-.073.038-.133.104-.216.104-.077 0-.2-.03-.21-.104-.015-.102.136-.205.232-.205.123-.048.283-.073.399-.008.03.014.055.046.046.077v.03h.005z"
    />
</svg>
