<svg xmlns="http://www.w3.org/2000/svg" width="16" height="16" style="margin-bottom:-.1em"><path fill="currentColor" d="M2 2v1.016h.004c.008.543.45.984.996.984q.008.001.016-.004v.031A8.97 8.97 0 0 1 12 13.012 1 1 0 0 0 13 14c.004 0 .012 0 .016-.004V14H14v-.996C13.996 7.035 9.2 2.164 3.258 2.03A1.3 1.3 0 0 0 3.016 2zm0 4v1.016h.004c.008.543.45.984.996.984q.008.001.016-.004v.02c2.718 0 4.91 2.14 4.996 4.84v.003A1.002 1.002 0 0 0 9 14h1v-.983h.016c0-3.797-3.051-6.899-6.82-6.996 0 0-.005 0-.005-.004A3 3 0 0 0 3.016 6zm2 4a2 2 0 1 0 2 2 2 2 0 0 0-2-2m0 0"/></svg>