<svg xmlns="http://www.w3.org/2000/svg" width="128" height="128" fill="none"><path fill="#9A9996" d="M120 37a9 9 0 0 0-9-9h-7v88h7a9 9 0 0 0 9-9z"/><path fill="url(#a)" d="M118 37a9 9 0 0 0-9-9h-7v86h9a7 7 0 0 0 7-7z"/><path fill="url(#b)" d="M23 12h70a9 9 0 0 1 9 9v87c0 4 3 6 7 6v2H23a9 9 0 0 1-9-9V21a9 9 0 0 1 9-9"/><path fill="url(#c)" d="M21 12h70a9 9 0 0 1 9 9v87c0 5 3 8 8 8H21a9 9 0 0 1-9-9V21a9 9 0 0 1 9-9"/><circle cx="36" cy="42" r="13.5" stroke="#000" stroke-width="3"/><circle cx="75" cy="42" r="13.5" stroke="#000" stroke-width="3"/><path stroke="#000" stroke-width="3" d="M61.5 42a6 6 0 0 0-12 0"/><rect width="27" height="27" x="24" y="69" fill="#C0BFBC" rx="6"/><rect width="27" height="3" x="60" y="72" fill="#C0BFBC" rx="1.5"/><rect width="27" height="3" x="60" y="81" fill="#C0BFBC" rx="1.5"/><rect width="27" height="3" x="60" y="90" fill="#C0BFBC" rx="1.5"/><defs><linearGradient id="a" x1="162" x2="111.195" y1="63.182" y2="115.168" gradientUnits="userSpaceOnUse"><stop stop-color="#DEDDDA"/><stop offset="1" stop-color="#9A9996"/></linearGradient><linearGradient id="b" x1="99.5" x2="109" y1="116" y2="116" gradientUnits="userSpaceOnUse"><stop stop-color="#DEDDDA"/><stop offset="1" stop-color="#9A9996"/></linearGradient><linearGradient id="c" x1="59.5" x2="59.5" y1="103" y2="116" gradientUnits="userSpaceOnUse"><stop stop-color="#F6F5F4"/><stop offset=".32" stop-color="#DEDDDA"/><stop offset=".807" stop-color="#ADACA9"/><stop offset="1" stop-color="#9A9996"/></linearGradient></defs></svg>