<svg xmlns="http://www.w3.org/2000/svg" width="128" height="128" fill="none"><path fill="url(#a)" d="M20 17a9 9 0 0 1 9-9h61v112H29a9 9 0 0 1-9-9z"/><path fill="#FF7800" d="M20 17a9 9 0 0 1 9-9h61v100H29a9 9 0 0 1-9-9z"/><path fill="url(#b)" d="M90 87h18v24a9 9 0 0 1-9 9h-9z"/><rect width="9" height="19" x="104" y="51" fill="#5E5C64" rx="3"/><rect width="9" height="15" x="104" y="51" fill="#9A9996" rx="3"/><rect width="9" height="13" x="104" y="19" fill="#5E5C64" rx="3"/><rect width="9" height="9" x="104" y="19" fill="#9A9996" rx="3"/><rect width="9" height="13" x="104" y="35" fill="#5E5C64" rx="3"/><rect width="9" height="9" x="104" y="35" fill="#9A9996" rx="3"/><path fill="#DEDDDA" d="M90 8h9a9 9 0 0 1 9 9v82a9 9 0 0 1-9 9h-9z"/><rect width="38" height="60" x="38" y="30" fill="#241F31" rx="3"/><rect width="16" height="45" x="52" y="37" fill="#77767B" rx="8"/><circle cx="60" cy="74" r="4" fill="#000"/><circle cx="60" cy="45" r="4" fill="#000"/><path fill="#000" d="M57 53h6v13h-6z"/><path fill="#77767B" d="M38 33h7v57h-5a2 2 0 0 1-2-2z"/><path fill="#000" d="M38 33a3 3 0 0 1 3-3h32a3 3 0 0 1 3 3z"/><path fill="#5E5C64" d="M38 33a3 3 0 0 1 3-3h4v3z"/><rect width="8" height="8" x="79" y="110" fill="#FF7800" rx="4"/><rect width="4" height="4" x="81" y="112" fill="#241F31" rx="2"/><rect width="8" height="8" x="68" y="110" fill="#FF7800" rx="4"/><rect width="4" height="4" x="70" y="112" fill="#241F31" rx="2"/><path stroke="#E66100" stroke-width="4" d="M90 20H20"/><defs><linearGradient id="a" x1="20" x2="90" y1="120" y2="120" gradientUnits="userSpaceOnUse"><stop stop-color="#C64600"/><stop offset=".057" stop-color="#FF7800"/><stop offset=".145" stop-color="#C64600"/></linearGradient><linearGradient id="b" x1="108" x2="90" y1="120" y2="120" gradientUnits="userSpaceOnUse"><stop stop-color="#C0BFBC"/><stop offset=".333" stop-color="#DEDDDA"/><stop offset="1" stop-color="#9A9996"/></linearGradient></defs></svg>