<svg xmlns="http://www.w3.org/2000/svg" width="16" height="16" fill="none"><path fill="#000" fill-rule="evenodd" d="M9 3a2 2 0 0 0-2 2v6a2 2 0 1 0 4 0V5a2 2 0 0 0-2-2m0 1a1 1 0 1 0 0 2 1 1 0 0 0 0-2m-1 7a1 1 0 1 1 2 0 1 1 0 0 1-2 0m1-4H8v2h1z" clip-rule="evenodd"/><path fill="#000" fill-rule="evenodd" d="M4 0a2 2 0 0 0-2 2v12a2 2 0 0 0 2 2h8a2 2 0 0 0 2-2V2a2 2 0 0 0-2-2zm8 2v12H6V2zM9 3a2 2 0 0 0-2 2v6a2 2 0 1 0 4 0V5a2 2 0 0 0-2-2m0 1a1 1 0 1 0 0 2 1 1 0 0 0 0-2M8 7h1v2H8zm0 4a1 1 0 1 1 2 0 1 1 0 0 1-2 0" clip-rule="evenodd"/></svg>