<svg xmlns="http://www.w3.org/2000/svg" width="128" height="128" viewBox="0 0 128 128"><defs><linearGradient id="a" x1="100%" x2="0%" y1="100%" y2="100%"><stop offset="0%" stop-color="#C0BFBC"/><stop offset="57.604%" stop-color="#DEDDDA"/><stop offset="100%" stop-color="#C0BFBC"/></linearGradient><linearGradient id="b" x1="50%" x2="50%" y1="0%" y2="100%"><stop offset="0%" stop-color="#FFF"/><stop offset="100%" stop-color="#F6F5F4"/></linearGradient><linearGradient id="c" x1="0%" x2="100%" y1="100%" y2="100%"><stop offset="0%" stop-color="#00679E"/><stop offset="28.565%" stop-color="#0079BA"/><stop offset="100%" stop-color="#00679E"/></linearGradient><linearGradient id="d" x1="50%" x2="50%" y1="0%" y2="100%"><stop offset="0%" stop-color="#1CAFFF"/><stop offset="100%" stop-color="#0082C9"/></linearGradient><linearGradient id="e" x1="50%" x2="50%" y1="0%" y2="100%"><stop offset="0%" stop-color="#FFF"/><stop offset="100%" stop-color="#FFF" stop-opacity=".75"/></linearGradient></defs><g fill="none" fill-rule="evenodd"><g transform="translate(4 36)"><path fill="url(#a)" d="M38,1 C62.300529,1 82,20.4756134 82,44.5 C82,54.1822304 78.8003625,63.1256377 73.3894144,70.3531259 L77.5,80.5 C77.5,81.5 77.5722064,83.0618563 77.258176,83.7576894 C76.9405621,84.4614627 76.3530415,85.0431656 75.5724826,85.3344189 C74.8960784,85.5868085 74.1513437,85.5868085 73.4749395,85.3344189 L61.9138389,81.020536 C55.0292137,85.4358085 46.8174983,88 38,88 C13.699471,88 -6,68.5243866 -6,44.5 C-6,20.4756134 13.699471,1 38,1 Z" transform="matrix(-1 0 0 1 81 0)"/><path fill="url(#b)" d="M38,0 C61.7482442,0 81,19.2517558 81,43 C81,52.2985211 78.0485523,60.9076947 73.0313723,67.9418053 L77.3344189,79.4749395 C77.9136394,81.0272506 77.1247937,82.7551983 75.5724826,83.3344189 C74.8960784,83.5868085 74.1513437,83.5868085 73.4749395,83.3344189 L61.6449544,78.9211299 C54.8610173,83.3956578 46.734647,86 38,86 C14.2517558,86 -5,66.7482442 -5,43 C-5,19.2517558 14.2517558,0 38,0 Z" transform="matrix(-1 0 0 1 81 0)"/></g><g transform="translate(37 4)"><g transform="translate(1)"><path fill="url(#c)" d="M43,1 C67.300529,1 87,20.4756134 87,44.5 C87,54.1822304 83.8003625,63.1256377 78.3894144,70.3531259 L82.5,80.5 C82.5,81.5 82.5722064,83.0618563 82.258176,83.7576894 C81.9405621,84.4614627 81.3530415,85.0431656 80.5724826,85.3344189 C79.8960784,85.5868085 79.1513437,85.5868085 78.4749395,85.3344189 L66.9138389,81.020536 C60.0292137,85.4358085 51.8174983,88 43,88 C18.699471,88 -1,68.5243866 -1,44.5 C-1,20.4756134 18.699471,1 43,1 Z"/><path fill="url(#d)" d="M43,0 C66.7482442,0 86,19.2517558 86,43 C86,52.2985211 83.0485523,60.9076947 78.0313723,67.9418053 L82.3344189,79.4749395 C82.9136394,81.0272506 82.1247937,82.7551983 80.5724826,83.3344189 C79.8960784,83.5868085 79.1513437,83.5868085 78.4749395,83.3344189 L66.6449544,78.9211299 C59.8610173,83.3956578 51.734647,86 43,86 C19.2517558,86 0,66.7482442 0,43 C0,19.2517558 19.2517558,0 43,0 Z"/></g><path fill="url(#e)" fill-rule="nonzero" d="M43.9970722,19.0004517 C37.6325228,19.0004517 31.5286899,21.5288612 27.0283703,26.0291965 C22.5280508,30.5295319 20.0000762,36.6332329 20.0000762,42.9975318 C20.0000762,56.2502406 30.7438418,66.9937368 43.9970722,66.9939262 C48.3896221,66.9850182 52.6954678,65.7706992 56.4453939,63.4832956 C59.3947561,64.6552428 66.0010614,68.1321385 67.5733871,66.6303154 C69.2164093,65.0613309 65.6444596,57.676836 64.7881146,54.9327845 C66.8804433,51.3024014 67.9856564,47.1874466 67.993794,42.9973261 C67.9936047,29.744885 57.2501034,19.0016532 43.9971408,19.0012745 L43.9970722,19.0004517 Z M43.999815,28.1236344 C52.2177227,28.1236344 58.8796532,34.785361 58.8796532,43.0030171 C58.8790851,51.2202716 52.2173211,57.8813713 43.999815,57.8813713 C35.782309,57.8813713 29.120545,51.2202716 29.1199769,43.0030171 C29.1199769,34.785361 35.7819074,28.1236344 43.999815,28.1236344 L43.999815,28.1236344 Z"/></g></g></svg>