<svg xmlns="http://www.w3.org/2000/svg" width="16" height="16" viewBox="0 0 16 16"><path d="M7.9992,1 C6.1428529,1 4.36254894,1.73750035 3.04994144,3.05018286 C1.73733395,4.36286537 1,6.14322638 1,7.9996 C1,11.8652228 4.1336324,14.9989448 7.9992,14.999 C9.28037431,14.9964017 10.5362596,14.6422024 11.63,13.975 C12.49024,14.31684 14.4171,15.331 14.8757,14.89294 C15.35492,14.43529 14.31309,12.28134 14.06332,11.48094 C14.6735892,10.4220099 14.9959465,9.22173734 14.99832,7.99954 C14.9982648,4.13399528 11.8647095,1.00035045 7.99922,1.00024 L7.9992,1 Z M8,3.6611 C10.3969158,3.6611 12.34,5.60422896 12.34,8.0012 C12.3398343,10.3980539 10.3967987,12.341 8,12.341 C5.60320134,12.341 3.66016567,10.3980539 3.66,8.0012 C3.66,5.60422896 5.60308419,3.6611 8,3.6611 L8,3.6611 Z"/></svg>