<svg xmlns="http://www.w3.org/2000/svg" width="128" height="128" fill="none"><path fill="url(#a)" d="M126 69.465s-8.236-1.633-13.687.646c-7.332 3.066-8.851 9.01-15.813 13.158-10.352 6.17-17.426 1.397-28.5 5.293-13.19 4.64-18.896 18.405-32.626 18.682-5.893.119-8.767-1.087-14.624-.292C14.338 107.822 8 116 8 116V35c0-3.5 5.807-7.85 11.75-6.9 7.04 1.127 11.18 9.654 17.75 12.927 10.661 5.31 19.345-1.499 30.5 2 13.082 4.102 14.99 18.157 28.5 17.975 5.94-.08 9.855-1.42 15.75-.525 6.703 1.019 13.75 8.988 13.75 8.988"/><path fill="#fff" fill-rule="evenodd" d="M29.517 61.921c-.05.326-.015 1.087.235 2.166-2.366-2.117-5.355-2.165-8.649-1.652q-1.566.244-3.103.08.79 3.157 1.683 5.168c1.109 2.5 2.902 4.263 3.428 4.725.355.313 1.534.948 3.431 1.37q-.317.097-.597.212c-2.912 1.193-4.185 4.036-5.079 7.455a12.8 12.8 0 0 1-1.17 2.96q3.042.73 5.136.83c2.603.124 4.842-.74 5.451-1.019.61-.278 2.55-1.924 4.184-5.428q.29-.626.535-1.341 1.2 3.615 2.542 5.295c2.069 2.588 5.096 3.107 8.522 3.097a12.1 12.1 0 0 1 3.1.386q-.354-3.225-.964-5.34c-.76-2.626-2.302-4.63-2.761-5.164-.28-.325-1.188-1.008-2.703-1.651q1.32-.089 2.252-.388c2.997-.963 4.47-3.693 5.605-7.025q.528-1.547 1.379-2.853-2.991-.96-5.078-1.22c-2.594-.324-4.894.363-5.523.594-.265.097-.784.418-1.436 1.008.57-3.196-.999-5.966-3.216-8.75a13.8 13.8 0 0 1-1.722-2.768q-2.198 2.193-3.39 3.94c-1.483 2.174-1.99 4.621-2.093 5.313m5.52 12.363c2.015.079 3.65-1.562 3.65-3.666s-1.635-3.873-3.65-3.952c-2.017-.08-3.652 1.562-3.652 3.665 0 2.104 1.635 3.873 3.651 3.953" clip-rule="evenodd"/><defs><linearGradient id="a" x1="8" x2="126" y1="116" y2="116" gradientUnits="userSpaceOnUse"><stop stop-color="#FFB937"/><stop offset=".083" stop-color="#FFC75E"/><stop offset=".255" stop-color="#FFB225"/><stop offset=".526" stop-color="#FFC963"/><stop offset=".714" stop-color="#FFB62F"/><stop offset=".901" stop-color="#FFC862"/><stop offset="1" stop-color="#FFC150"/></linearGradient></defs></svg>