<svg xmlns="http://www.w3.org/2000/svg" width="128" height="128" fill="none"><g clip-path="url(#a)"><path fill="#813D9C" fill-rule="evenodd" d="M20 10h10v4.13a3 3 0 0 0 3 3h8a3 3 0 0 0 3-3V10h40v4.13a3 3 0 0 0 3 3h8a3 3 0 0 0 3-3V10h10v110H98v-3.111a3 3 0 0 0-3-3h-8a3 3 0 0 0-3 3V120H44v-3.111a3 3 0 0 0-3-3h-8a3 3 0 0 0-3 3V120H20zm67 18.333a3 3 0 0 0-3 3v4.186a3 3 0 0 0 3 3h8a3 3 0 0 0 3-3v-4.186a3 3 0 0 0-3-3zm-3 24.39a3 3 0 0 1 3-3h8a3 3 0 0 1 3 3v4.184a3 3 0 0 1-3 3h-8a3 3 0 0 1-3-3v-4.185Zm3 18.388a3 3 0 0 0-3 3v4.185a3 3 0 0 0 3 3h8a3 3 0 0 0 3-3v-4.185a3 3 0 0 0-3-3zM84 95.5a3 3 0 0 1 3-3h8a3 3 0 0 1 3 3v4.185a3 3 0 0 1-3 3h-8a3 3 0 0 1-3-3zM33 28.333a3 3 0 0 0-3 3v4.186a3 3 0 0 0 3 3h8a3 3 0 0 0 3-3v-4.186a3 3 0 0 0-3-3zm-3 24.39a3 3 0 0 1 3-3h8a3 3 0 0 1 3 3v4.184a3 3 0 0 1-3 3h-8a3 3 0 0 1-3-3v-4.185Zm3 18.388a3 3 0 0 0-3 3v4.185a3 3 0 0 0 3 3h8a3 3 0 0 0 3-3v-4.185a3 3 0 0 0-3-3zM30 95.5a3 3 0 0 1 3-3h8a3 3 0 0 1 3 3v4.185a3 3 0 0 1-3 3h-8a3 3 0 0 1-3-3z" clip-rule="evenodd"/><path fill="url(#b)" fill-rule="evenodd" d="M20 8h10v4.13a3 3 0 0 0 3 3h8a3 3 0 0 0 3-3V8h40v4.13a3 3 0 0 0 3 3h8a3 3 0 0 0 3-3V8h10v110H98v-3.111a3 3 0 0 0-3-3h-8a3 3 0 0 0-3 3V118H44v-3.111a3 3 0 0 0-3-3h-8a3 3 0 0 0-3 3V118H20zm67 18.333a3 3 0 0 0-3 3v4.186a3 3 0 0 0 3 3h8a3 3 0 0 0 3-3v-4.186a3 3 0 0 0-3-3zm-3 24.39a3 3 0 0 1 3-3h8a3 3 0 0 1 3 3v4.184a3 3 0 0 1-3 3h-8a3 3 0 0 1-3-3v-4.185Zm3 18.388a3 3 0 0 0-3 3v4.185a3 3 0 0 0 3 3h8a3 3 0 0 0 3-3v-4.185a3 3 0 0 0-3-3zM84 93.5a3 3 0 0 1 3-3h8a3 3 0 0 1 3 3v4.185a3 3 0 0 1-3 3h-8a3 3 0 0 1-3-3zM33 26.333a3 3 0 0 0-3 3v4.186a3 3 0 0 0 3 3h8a3 3 0 0 0 3-3v-4.186a3 3 0 0 0-3-3zm-3 24.39a3 3 0 0 1 3-3h8a3 3 0 0 1 3 3v4.184a3 3 0 0 1-3 3h-8a3 3 0 0 1-3-3v-4.185Zm3 18.388a3 3 0 0 0-3 3v4.185a3 3 0 0 0 3 3h8a3 3 0 0 0 3-3v-4.185a3 3 0 0 0-3-3zM30 93.5a3 3 0 0 1 3-3h8a3 3 0 0 1 3 3v4.185a3 3 0 0 1-3 3h-8a3 3 0 0 1-3-3z" clip-rule="evenodd"/><path fill="#F5C211" fill-rule="evenodd" d="M109.944 54.25c2.24-8.36-2.722-16.953-11.082-19.194-8.224-2.203-16.673 2.561-19.08 10.674h-.005l-.079.295-.06.227-8.63 32.208 10.77 2.886 11.067-15.6c7.656.975 15.046-3.833 17.099-11.495ZM96.669 43.24a7.2 7.2 0 1 1-3.727 13.91 7.2 7.2 0 0 1 3.727-13.91" clip-rule="evenodd"/><path fill="url(#c)" d="m80.008 80.872-9.001-2.412-10.158 37.909a6.5 6.5 0 0 0 4.597 7.961l2.722.729z"/><path fill="#DEDDDA" d="m80.008 80.872-1.636-.438-11.84 44.187 1.636.438z"/><path fill="#F6D32D" fill-rule="evenodd" d="M43.739 54.25c-2.24-8.36 2.721-16.953 11.082-19.194 8.223-2.203 16.673 2.561 19.079 10.675l.005-.002.107.397.003.012.003.013 8.658 32.31-10.77 2.885-11.068-15.6c-7.656.975-15.046-3.833-17.1-11.495Zm13.274-11.01a7.2 7.2 0 1 0 3.727 13.91 7.2 7.2 0 0 0-3.727-13.91" clip-rule="evenodd"/><path fill="url(#d)" d="m73.674 80.872 9.001-2.412 10.158 37.909a6.5 6.5 0 0 1-4.596 7.961l-2.723.729z"/><path fill="#DEDDDA" d="m73.674 80.872 1.637-.438 11.84 44.187-1.637.438z"/><path stroke="#fff" stroke-linecap="round" stroke-opacity=".5" stroke-width="3" d="m66 64 8 12"/></g><defs><linearGradient id="b" x1="108" x2="108" y1="118" y2="8" gradientUnits="userSpaceOnUse"><stop stop-color="#C061CB"/><stop offset="1" stop-color="#3584E4"/></linearGradient><linearGradient id="c" x1="75.507" x2="63.668" y1="79.666" y2="123.853" gradientUnits="userSpaceOnUse"><stop offset=".234" stop-color="#C0BFBC"/><stop offset=".646" stop-color="#DEDDDA"/><stop offset="1" stop-color="#C0BFBC"/></linearGradient><linearGradient id="d" x1="78.175" x2="90.015" y1="79.666" y2="123.853" gradientUnits="userSpaceOnUse"><stop stop-color="#C0BFBC"/><stop offset=".646" stop-color="#DEDDDA"/><stop offset="1" stop-color="#C0BFBC"/></linearGradient><clipPath id="a"><path fill="#fff" d="M0 0h128v128H0z"/></clipPath></defs></svg>