<svg xmlns="http://www.w3.org/2000/svg" width="128" height="128" viewBox="0 0 128 128"><defs><radialGradient id="c" cx="44.793%" cy="32.747%" r="57.488%" fx="44.793%" fy="32.747%"><stop offset="0%" stop-color="#E4F3C9"/><stop offset="100%" stop-color="#C0DCB6"/></radialGradient><radialGradient id="d" cx="43.464%" cy="36.98%" r="50.032%" fx="43.464%" fy="36.98%"><stop offset="0%" stop-color="#87B387"/><stop offset="100%" stop-color="#6C9C6C"/></radialGradient><radialGradient id="e" cx="50%" cy="32.902%" r="50%" fx="50%" fy="32.902%"><stop offset="0%" stop-color="#C9EAC4"/><stop offset="100%" stop-color="#A5D29F"/></radialGradient><linearGradient id="a" x1="0%" x2="100%" y1="100%" y2="100%"><stop offset="0%" stop-color="#688668"/><stop offset="8.846%" stop-color="#7DA47D"/><stop offset="27.807%" stop-color="#588258"/><stop offset="70.167%" stop-color="#588258"/><stop offset="90.536%" stop-color="#7DA47D"/><stop offset="100%" stop-color="#688668"/></linearGradient><linearGradient id="b" x1="66.947%" x2="100%" y1="38.72%" y2="93.556%"><stop offset="0%" stop-color="#6C9C6C"/><stop offset="100%" stop-color="#3E603E"/></linearGradient></defs><g fill="none" fill-rule="evenodd"><path fill="url(#a)" d="M60,8 L68,8 C98.927946,8 124,33.072054 124,64 L124,100.770861 C124,107.457252 123.303808,109.881898 121.996505,112.326343 C120.689202,114.770787 118.770787,116.689202 116.326343,117.996505 C113.881898,119.303808 111.457252,120 104.770861,120 L23.229139,120 C16.5427485,120 14.1181017,119.303808 11.6736572,117.996505 C9.22921278,116.689202 7.31079847,114.770787 6.00349528,112.326343 C4.69619208,109.881898 4,107.457252 4,100.770861 L4,64 C4,33.072054 29.072054,8 60,8 Z"/><path fill="url(#b)" d="M60,4 L68,4 C98.927946,4 124,29.072054 124,60 L124,96.770861 C124,103.457252 123.303808,105.881898 121.996505,108.326343 C120.689202,110.770787 118.770787,112.689202 116.326343,113.996505 C113.881898,115.303808 111.457252,116 104.770861,116 L23.229139,116 C16.5427485,116 14.1181017,115.303808 11.6736572,113.996505 C9.22921278,112.689202 7.31079847,110.770787 6.00349528,108.326343 C4.69619208,105.881898 4,103.457252 4,96.770861 L4,60 C4,29.072054 29.072054,4 60,4 Z"/><circle cx="31" cy="19" r="16" fill="#6C9C6C"/><circle cx="88" cy="19" r="16" fill="#6C9C6C"/><path fill="#496D49" d="M56.5,29 C78.8675324,29 97,47.1324676 97,69.5 L97,116 L97,116 L59.5,116 C50.7441559,116 42.9922078,114.085281 36.5477634,110.559452 C30.1033189,107.033622 24.9663781,101.896681 21.4405484,95.4522366 C17.9147186,89.0077922 16,81.2558441 16,72.5 L16,69.5 C16,47.1324676 34.1324676,29 56.5,29 Z"/><path fill="url(#c)" d="M56.5,35 C78.8675324,35 97,53.1324676 97,75.5 L97,116 L97,116 L56.5,116 C34.1324676,116 16,97.8675324 16,75.5 C16,53.1324676 34.1324676,35 56.5,35 Z"/><path fill="url(#d)" d="M124,64 L124,64 L124,64 L124,96.770861 C124,103.457252 123.303808,105.881898 121.996505,108.326343 C120.689202,110.770787 118.770787,112.689202 116.326343,113.996505 C113.881898,115.303808 111.457252,116 104.770861,116 L72,116 L72,116 C72,87.281193 95.281193,64 124,64 Z"/><circle cx="89" cy="17" r="9" fill="url(#e)"/><circle cx="30" cy="17" r="9" fill="url(#e)"/><path fill="#3D3846" d="M88.5,12 C89.8807119,12 91,13.1192881 91,14.5 L91,19.5 C91,20.8807119 89.8807119,22 88.5,22 C87.1192881,22 86,20.8807119 86,19.5 L86,14.5 C86,13.1192881 87.1192881,12 88.5,12 Z" transform="rotate(-90 88.5 17)"/><path fill="#3D3846" d="M29.5,12 C30.8807119,12 32,13.1192881 32,14.5 L32,19.5 C32,20.8807119 30.8807119,22 29.5,22 C28.1192881,22 27,20.8807119 27,19.5 L27,14.5 C27,13.1192881 28.1192881,12 29.5,12 Z" transform="rotate(-90 29.5 17)"/><circle cx="90" cy="16" r="1" fill="#FFF"/><circle cx="31" cy="16" r="1" fill="#FFF"/></g></svg>