<svg xmlns="http://www.w3.org/2000/svg" width="16" height="16" viewBox="0 0 16 16"><path fill-rule="evenodd" d="M3.68404856,-6.35137146e-17 C4.27804679,5.58939832e-17 4.65091978,0.0928256112 4.9768457,0.267132704 C5.30277163,0.441439796 5.5585602,0.697228371 5.7328673,1.0231543 C5.75564606,1.06574689 5.77703331,1.10914123 5.79700372,1.15372605 C6.33530495,1.05191723 6.90432535,1 7.5,1 L8.281,1 L8.36102385,0.866088632 C8.52865091,0.614228887 8.75154936,0.412388614 9.0231543,0.267132704 C9.34908022,0.0928256112 9.72195321,5.58939832e-17 10.3159514,-6.35137146e-17 L10.6840486,0 C11.2780468,0 11.6509198,0.0928256112 11.9768457,0.267132704 C12.3027716,0.441439796 12.5585602,0.697228371 12.7328673,1.0231543 C12.9031661,1.34158546 12.9956878,1.7048294 12.9998529,2.27532263 C13.8567168,2.85882605 14.5535302,3.62653143 15.0591096,4.54844745 C15.6684437,5.65955856 16,6.99466892 16,8.5 L16,12.7951435 C16,13.9095419 15.883968,14.3136497 15.6660841,14.7210571 C15.4482003,15.1284645 15.1284645,15.4482003 14.7210571,15.6660841 C14.3136497,15.883968 13.9095419,16 12.7951435,16 L3.2048565,16 C2.09045808,16 1.68635028,15.883968 1.27894287,15.6660841 C0.871535463,15.4482003 0.551799746,15.1284645 0.33391588,14.7210571 C0.116032014,14.3136497 0,13.9095419 0,12.7951435 L1.14870664e-16,8.5 C-2.30966097e-16,6.99466892 0.331556306,5.65955856 0.940890389,4.54844745 L1,4.444 L1,2.31595144 C1,1.79620299 1.07106961,1.44575355 1.20560915,1.14791735 L1.2671327,1.0231543 C1.4414398,0.697228371 1.69722837,0.441439796 2.0231543,0.267132704 C2.34908022,0.0928256112 2.72195321,0 3.31595144,0 L3.68404856,-6.35137146e-17 Z M7,5 C4.23857625,5 2,7.23857625 2,10 C2,12.7614237 4.23857625,15 7,15 C7.71131077,15 8.38792967,14.8514665 9.0005324,14.5837237 L9,14.1277704 C9,12.3447329 9.18565122,11.6981604 9.53426541,11.0463086 C9.88287959,10.3944567 10.3944567,9.88287959 11.0463086,9.53426541 C11.3157966,9.39014166 11.5843822,9.27387079 11.9342654,9.18717933 C11.5460178,6.81233363 9.48465552,5 7,5 Z M10.9651005,1.00060917 L9.96570968,1.03550867 C9.41376136,1.05478313 8.98194389,1.51785068 9.00121835,2.06979899 C9.02049281,2.62174731 9.48356036,3.05356478 10.0355087,3.03429032 L11.0348995,2.99939083 C11.5868478,2.98011637 12.0186653,2.51704882 11.9993908,1.9651005 C11.9801164,1.41315219 11.5170488,0.981334713 10.9651005,1.00060917 Z M4,1 L3,1 C2.44771525,1 2,1.44771525 2,2 C2,2.55228475 2.44771525,3 3,3 L4,3 C4.55228475,3 5,2.55228475 5,2 C5,1.44771525 4.55228475,1 4,1 Z"/></svg>