<svg xmlns="http://www.w3.org/2000/svg" width="128" height="128" fill="none"><g clip-path="url(#a)"><path fill="url(#b)" d="M52 52.564h24v-32c0-6.627-5.373-12-12-12s-12 5.373-12 12z"/><path fill="url(#c)" d="M48 52.564h32l-4-14s-2-3-12-3-12 3-12 3z"/><path fill="#5E5C64" d="M122.26 103.681c-6.26 4.383-11.953-15.477-22.645-18.424C59 74.064 68 48.564 68 48.564s8.368 1.755 21.5 6.335L88 58.064l20.913 5.5-2.913 5s17 3 19.837 12.471c2.559 6.03 3.373 17.78-3.577 22.646"/><path fill="#5E5C64" d="M6.64 103.681c6.26 4.383 11.953-15.477 22.645-18.424C69.9 74.064 61 48.564 61 48.564S52.532 50.32 39.4 54.9l1.5 3.165-20.913 5.5 2.913 5s-17 3-19.837 12.471c-2.56 6.03-3.373 17.78 3.577 22.646"/><path fill="#241F31" d="M104.055 115.258c-7.295 4.878-21.273-16.005-30.215-22.43C53.902 78.5 59.68 50.904 59.68 50.904s50.202 17.718 53.467 42.05c1.475 10.994-2.041 17.587-9.092 22.303"/><path fill="#241F31" d="M24.964 115.258c7.295 4.878 21.273-16.005 30.215-22.43 19.938-14.327 14.16-41.923 14.16-41.923s-50.203 17.718-53.467 42.05c-1.475 10.994 2.04 17.587 9.092 22.303"/><path fill="#77767B" d="M104.055 117.258c-7.295 4.878-21.273-16.005-30.215-22.43C53.902 80.5 59.68 50.903 59.68 50.903s50.202 19.719 53.467 44.052c1.475 10.993-2.041 17.586-9.092 22.302"/><path fill="#77767B" d="M24.964 117.258c7.295 4.878 21.273-16.005 30.215-22.43 19.938-14.327 14.16-43.924 14.16-43.924s-50.203 19.72-53.467 44.053c-1.475 10.993 2.04 17.586 9.092 22.302"/><path fill="#5E5C64" d="M61 118.564h7v-70s-2.12-.5-3.5-.5-3.5.5-3.5.5z"/><path fill="#5E5C64" d="M64.5 126c-3 0-14.557-3.534-19.275-13.514-2.219-4.691-2.356-11.118-1.725-17.422.8-6.951 8-18.5 8-18.5h-4.783c.628-1.89.046-.5 1.98-5.5S59 56.101 59 56.101h-3.5c1.496-2.858 2.5-4.537 2.5-4.537 1.105-2.07 3.285-1.57 4.5-2.497l2 64.997 2-64.997c1.215.927 3.396.426 4.5 2.497 0 0 1.004 1.679 2.5 4.537H70s8.37 9.963 10.303 14.963 1.352 3.61 1.98 5.5H77.5s7.821 11.549 8.621 18.5.34 11.741-2.346 17.422C79.057 122.466 67.5 126 64.5 126"/><path fill="#9A9996" d="M64.5 128c-3 0-14.557-2.534-19.275-12.514-2.219-4.691-2.356-11.118-1.725-17.422.8-6.951 8-18.5 8-18.5h-4.783c.628-1.89.046-.5 1.98-5.5S59 59.101 59 59.101h-3.5c1.496-2.858 2.5-4.537 2.5-4.537 1.105-2.07 3.285-3.57 4.5-4.497l2 66.997 2-66.997c1.215.927 3.396 2.426 4.5 4.497 0 0 1.004 1.679 2.5 4.537H70s8.37 9.963 10.303 14.963 1.352 3.61 1.98 5.5H77.5s7.821 11.549 8.621 18.5.34 11.741-2.346 17.422C79.057 125.466 67.5 128 64.5 128"/></g><defs><linearGradient id="b" x1="52" x2="76" y1="8.564" y2="8.564" gradientUnits="userSpaceOnUse"><stop stop-color="#63452C"/><stop offset=".04" stop-color="#865E3C"/><stop offset=".23" stop-color="#B5835A"/><stop offset=".44" stop-color="#865E3C"/><stop offset=".77" stop-color="#63452C"/></linearGradient><linearGradient id="c" x1="52" x2="74.493" y1="35.564" y2="40.087" gradientUnits="userSpaceOnUse"><stop stop-color="#3D3846"/><stop offset=".23" stop-color="#9A9996"/><stop offset=".6" stop-color="#5E5C64"/><stop offset="1" stop-color="#3D3846"/></linearGradient><clipPath id="a"><path fill="#fff" d="M0 0h128v128H0z"/></clipPath></defs></svg>