<svg xmlns="http://www.w3.org/2000/svg" width="16" height="16" fill="none"><path fill="#000" d="M6 2a2 2 0 1 1 4 0v3H6z"/><path fill="#000" fill-rule="evenodd" d="m6.72 6-.333 1h3.226l-.334-1zm3.802 3H5.46c-.169.197-.395.463-.645.758a69 69 0 0 0-1.526 1.856c-.124.16-.198.36-.24.538C3.669 12.737 5.319 14 8 14c2.644 0 4.284-1.227 4.925-1.824a4 4 0 0 0-.066-.244 2 2 0 0 0-.084-.22l-.028-.054a66 66 0 0 1-1.622-1.917zM4.113 7.497l.823-2.471A1.5 1.5 0 0 1 6.36 4h3.28a1.5 1.5 0 0 1 1.423 1.026l.829 2.488a94 94 0 0 0 .78.958c.506.618 1.12 1.354 1.573 1.861.284.317.437.73.522 1 .095.303.154.6.187.79.074.43-.05.885-.366 1.22C13.97 13.997 11.772 16 8 16c-3.84 0-6.048-2.074-6.62-2.692a1.39 1.39 0 0 1-.367-1.07c.032-.354.156-1.155.698-1.852a70 70 0 0 1 1.577-1.92 168 168 0 0 1 .826-.969" clip-rule="evenodd"/></svg>