<svg xmlns="http://www.w3.org/2000/svg" width="128" height="128" fill="none"><path fill="#1C71D8" d="M20 25h88v49H20z"/><path fill="#1A5FB4" d="M116 110.886c0-3.308-9-59.886-9-59.886H71v38.113l6.387 24.953c.751 2.937 9.147 4.464 9.147 4.464s6.046 1.516 10.578 1.469c3.902-.04 7.889-.501 11.769-2.203 3.312-1.453 7.119-3.343 7.119-6.91M12 110.886C12 107.578 21 51 21 51h36v38.113l-6.387 24.953c-.751 2.937-9.147 4.464-9.147 4.464s-6.046 1.516-10.579 1.469c-3.9-.04-7.888-.501-11.768-2.203-3.312-1.453-7.119-3.343-7.119-6.91"/><path fill="url(#a)" d="M119 101.508C119 97.338 108 26 108 26H64v48.056l7.807 31.462c.917 3.704 11.179 5.629 11.179 5.629s7.612 1.91 13.151 1.852c4.769-.051 9.42-.631 14.161-2.778 4.049-1.832 8.702-4.215 8.702-8.713"/><path fill="url(#b)" d="M9 101.508C9 97.338 20 26 20 26h44v48.056l-7.807 31.462c-.917 3.704-11.179 5.629-11.179 5.629s-7.612 1.91-13.152 1.852c-4.768-.051-9.419-.631-14.16-2.778-4.05-1.832-8.702-4.215-8.702-8.713"/><path fill="url(#c)" d="M20 15a3 3 0 0 1 3-3h82a3 3 0 0 1 3 3v11H20z"/><path stroke="#F6F5F4" stroke-width="3" d="M45.754 21c-3.379 0-5.933 2.698-5.744 5.818.184 3.035 2.91 5.35 6.082 5.172 1.419-.08 3.379-1.293 3.379-1.293L64 21zM82.246 21c3.379 0 5.933 2.698 5.744 5.818-.184 3.035-2.91 5.35-6.082 5.172-1.419-.08-3.379-1.293-3.379-1.293L64 21z"/><path fill="url(#d)" d="M60 52a1 1 0 1 0 2 0zm0-5v5h2v-5z"/><path fill="url(#e)" d="M66 42a1 1 0 1 0 2 0zm0-5v5h2v-5z"/><path fill="#F6F5F4" d="M59.5 46.5a1.5 1.5 0 0 0 3 0zm0-25.5v25.5h3V21zM65.5 37a1.5 1.5 0 0 0 3 0zm0-16v16h3V21z"/><defs><linearGradient id="a" x1="64" x2="119" y1="113" y2="103" gradientUnits="userSpaceOnUse"><stop offset=".203" stop-color="#1C71D8"/><stop offset=".667" stop-color="#3584E4"/><stop offset=".828" stop-color="#3584E4"/><stop offset="1" stop-color="#1C71D8"/></linearGradient><linearGradient id="b" x1="64" x2="9" y1="113" y2="103" gradientUnits="userSpaceOnUse"><stop offset=".198" stop-color="#1C71D8"/><stop offset=".484" stop-color="#3584E4"/><stop offset=".573" stop-color="#3584E4"/><stop offset="1" stop-color="#1C71D8"/></linearGradient><linearGradient id="c" x1="20" x2="108" y1="26" y2="26" gradientUnits="userSpaceOnUse"><stop stop-color="#1A5FB4"/><stop offset=".797" stop-color="#1C71D8"/><stop offset="1" stop-color="#1A5FB4"/></linearGradient><linearGradient id="d" x1="60" x2="62.5" y1="52" y2="52" gradientUnits="userSpaceOnUse"><stop stop-color="#62A0EA"/><stop offset=".62" stop-color="#99C1F1"/><stop offset="1" stop-color="#62A0EA"/></linearGradient><linearGradient id="e" x1="66" x2="68.5" y1="42" y2="42" gradientUnits="userSpaceOnUse"><stop stop-color="#62A0EA"/><stop offset=".62" stop-color="#99C1F1"/><stop offset="1" stop-color="#62A0EA"/></linearGradient></defs></svg>