<svg xmlns="http://www.w3.org/2000/svg" width="128" height="128" fill="none"><path fill="#C64600" d="M80 108H20a8 8 0 0 0 0 16h60a8 8 0 0 0 0-16"/><path fill="url(#a)" d="M20 12c4.432 0 8 3.568 8 8v96H12V20c0-4.432 3.568-8 8-8"/><path fill="#FFEAC1" d="M46 40H28v76h18z"/><path fill="#FFEAC1" d="M108 92H36a8 8 0 1 0 0 16h72a8 8 0 0 0 0-16"/><path fill="#FFEAC1" d="M116 20H28v80h88z"/><path fill="#FFEAC1" d="M108 12H36a8 8 0 1 0 0 16h72a8 8 0 0 0 0-16m0 80H36a8 8 0 1 0 0 16h72a8 8 0 0 0 0-16"/><path fill="url(#b)" d="M116 100c0 4.432-3.568 8-8 8H36a8 8 0 0 0-8 8h80a8 8 0 0 0 8-8z"/><path fill="url(#c)" d="M28 116a8 8 0 1 0-16 0 8 8 0 0 0 16 0"/><path fill="url(#d)" d="M20 107.875c-4.532 0-8 3.488-8 8.125 0 4 3 8 8 8v-2c-3.523 0-6-2.616-6-6 0-3.654 2.414-6.095 6.01-6.17 3.384.002 5.99 2.661 5.99 6.045h2c0-5-3.986-8-8-8"/><path fill="#E66100" d="M19.684 122H80c3.895 0 8-2.178 8-6 0 4.187-3.259 8-8 8H19.684z"/><path stroke="#000" stroke-linecap="round" stroke-linejoin="round" stroke-width="3" d="M67 94h4m-4 0v-7M54 25h7m5 0h7m3 69h7M42 25h7m-7 69h7m49-7h5m-5 7h5m-2.5-7v7M98 73h5m-5 7h5m-2.5-7v7M54 87v7l3.5-3.5L61 94v-7m27.5 5s0 2 1.5 2c2 0 2-2 2-2v-5M54 31v8m7 0v-8m-7 4h7m-7 10v8m7 0v-8m-7 4h7m-7 10v8m7 0v-8m-7 4h7m-7 10v8m7 0v-8m-7 4h7"/><path stroke="#3D3846" stroke-linecap="round" stroke-linejoin="round" stroke-width="3" d="M67 95h4m-4 0v-7M54 26h7m5 0h7m3 69h7M42 26h7m-7 69h7m49-7h5m-5 7h5m-2.5-7v7M98 74h5m-5 7h5m-2.5-7v7M54 88v7l3.5-3.5L61 95v-7m27.5 5s0 2 1.5 2c2 0 2-2 2-2v-5M54 32v8m7 0v-8m-7 4h7m-7 10v8m7 0v-8m-7 4h7m-7 10v8m7 0v-8m-7 4h7m-7 10v8m7 0v-8m-7 4h7"/><defs><linearGradient id="a" x1="12" x2="28" y1="72" y2="72" gradientUnits="userSpaceOnUse"><stop stop-color="#C64600"/><stop offset=".5" stop-color="#FF7800"/><stop offset="1" stop-color="#E66100"/></linearGradient><linearGradient id="b" x1="108" x2="116" y1="106" y2="106" gradientUnits="userSpaceOnUse"><stop stop-color="#FACB70"/><stop offset=".323" stop-color="#FFD88C"/><stop offset="1" stop-color="#FACB70"/></linearGradient><linearGradient id="c" x1="27.164" x2="18.627" y1="120.007" y2="113.147" gradientUnits="userSpaceOnUse"><stop stop-color="#C64600"/><stop offset=".4" stop-color="#C54600"/><stop offset="1" stop-color="#983600"/></linearGradient><linearGradient id="d" x1="18.506" x2="21.92" y1="112.681" y2="118.595" gradientUnits="userSpaceOnUse"><stop stop-color="#C64600"/><stop offset="1" stop-color="#E66100"/></linearGradient></defs></svg>