<svg xmlns="http://www.w3.org/2000/svg" width="16" height="16" viewBox="0 0 16 16"><g fill-rule="evenodd" transform="translate(2 1)"><path d="M2,10 L10,10 C11.1045695,10 12,10.8954305 12,12 L12,12.5 C12,13.3284271 11.3284271,14 10.5,14 L1.5,14 C0.671572875,14 0,13.3284271 0,12.5 L0,12 C0,10.8954305 0.8954305,10 2,10 Z"/><path d="M4.5,6 L7.5,6 C8.32842712,6 9,6.67157288 9,7.5 L9,8 C9,8.55228475 8.55228475,9 8,9 L4,9 C3.44771525,9 3,8.55228475 3,8 L3,7.5 C3,6.67157288 3.67157288,6 4.5,6 Z" opacity=".5"/><rect width="12" height="2" y="3" rx="1"/><rect width="4" height="2" x="4" opacity=".75" rx="1"/></g></svg>