<svg xmlns="http://www.w3.org/2000/svg" width="128" height="128" viewBox="0 0 128 128"><defs><linearGradient id="a" x1="6.227%" x2="95.457%" y1="6.227%" y2="95.457%"><stop offset="0%" stop-color="#99C1F1"/><stop offset="48.806%" stop-color="#E1B6E2"/><stop offset="70.856%" stop-color="#FFBE6F"/><stop offset="100%" stop-color="#F9F06B"/></linearGradient><linearGradient id="b" x1=".079%" x2="99.919%" y1="49.077%" y2="49.077%"><stop offset="0%" stop-color="#613583"/><stop offset="42.581%" stop-color="#3584E4"/><stop offset="49.999%" stop-color="#99C1F1"/><stop offset="57.427%" stop-color="#3584E4"/><stop offset="100%" stop-color="#613583"/></linearGradient></defs><g fill="none" fill-rule="evenodd"><rect width="84" height="84" x="22.063" y="21.892" fill="url(#a)" fill-rule="nonzero" rx="8" transform="scale(1 -1) rotate(45 218.312 0)"/><g fill="#000" transform="translate(40 30)"><path d="M8,40 L40,40 C44.418278,40 48,43.581722 48,48 L48,50 C48,53.3137085 45.3137085,56 42,56 L6,56 C2.6862915,56 0,53.3137085 0,50 L0,48 C0,43.581722 3.581722,40 8,40 Z" opacity=".75"/><path d="M18,24 L30,24 C33.3137085,24 36,26.6862915 36,30 L36,32 C36,34.209139 34.209139,36 32,36 L16,36 C13.790861,36 12,34.209139 12,32 L12,30 C12,26.6862915 14.6862915,24 18,24 Z" opacity=".4"/><rect width="48" height="8" y="12" opacity=".75" rx="4"/><rect width="16" height="8" x="16" opacity=".6" rx="4"/></g><path fill="url(#b)" fill-rule="nonzero" d="M8.55882454,60.8921994 C7.38765554,63.7788194 7.97368592,67.2000494 10.3224965,69.5484494 L58.4064805,117.632429 C61.5403775,120.766329 66.5850835,120.766329 69.7189805,117.632429 L117.802961,69.5484494 C120.151361,67.2000494 120.739751,63.7788094 119.568591,60.8921994 C119.176851,61.8577194 118.588461,62.7629494 117.802961,63.5484494 L69.7189805,111.632429 C66.5850835,114.766329 61.5403775,114.766329 58.4064805,111.632429 L10.3224965,63.5484494 C9.53699954,62.7629494 8.95055854,61.8577194 8.55882454,60.8921994 Z" opacity=".8"/></g></svg>