<svg width="16" height="16" fill="none" xmlns="http://www.w3.org/2000/svg"><g clip-path="url(#a)"><path d="M6 12a1 1 0 0 0 1-1V8c0-.566.434-1 1-1h2a1 1 0 1 0 0-2H8C6.355 5 5 6.355 5 8v3a1 1 0 0 0 1 1Z" fill="#000"/><path d="M3 11h6l-3 5-3-5Zm13-1h-6l3-5 3 5Z" fill="#000"/><path d="M11 16c1.645 0 3-1.355 3-3v-3a1 1 0 0 0-2 0v3c0 .566-.434 1-1 1H9a1 1 0 0 0 0 2h2Z" fill="#000"/><path d="M11 4V3a2 2 0 0 0-2-2H3a2 2 0 0 0-2 2v10a2 2 0 0 0 2 2h1" stroke="#000" stroke-width="2"/><path d="M3 3.5h4m-4 2h2" stroke="#000"/></g><defs><clipPath id="a"><path fill="#fff" d="M0 0h16v16H0z"/></clipPath></defs></svg>