<svg xmlns="http://www.w3.org/2000/svg" width="128" height="128" fill="none"><circle cx="64" cy="64" r="60" fill="url(#a)"/><ellipse cx="64" cy="61.5" fill="url(#b)" rx="60" ry="57.5"/><circle cx="64" cy="62" r="46" fill="url(#c)"/><g opacity=".4"><path fill="#AB78D3" d="M63.016 21.344c.425-3.125 2.543-3.125 2.968 0L71.51 61.98H57.489zM63.016 102.656c.425 3.125 2.543 3.125 2.968 0l5.527-40.675H57.489z"/><path fill="#AB78D3" d="M105.156 60.516c3.125.425 3.125 2.543 0 2.968L64.519 69.01V54.989zM23.844 60.516c-3.125.425-3.125 2.543 0 2.968l40.675 5.527V54.989z"/><path fill="#35005E" d="M45.633 83.455c-1.92 1.178-3.766-.668-2.588-2.588l15.333-24.97 12.226 12.225zM85.955 43.133c1.178-1.92-.668-3.766-2.588-2.588l-24.99 15.351 12.227 12.226z"/><path fill="#35005E" d="M43.046 43.133c-1.18-1.92.667-3.766 2.587-2.588l24.97 15.333-12.225 12.226zM83.367 83.455c1.92 1.178 3.766-.668 2.587-2.588l-15.35-24.99-12.226 12.227z"/></g><path fill="url(#d)" d="M41.038 42.44c-1.164-2.09 1.141-4.395 3.23-3.231l27.17 15.135L56.174 69.61z"/><path fill="url(#e)" d="M83.363 84.764c2.089 1.164 4.394-1.141 3.23-3.23l-15.154-27.19L56.173 69.61z"/><defs><linearGradient id="a" x1="4" x2="124" y1="124" y2="124" gradientUnits="userSpaceOnUse"><stop stop-color="#613583"/><stop offset=".107" stop-color="#854BB1"/><stop offset=".303" stop-color="#613583"/><stop offset=".5" stop-color="#673191"/><stop offset=".697" stop-color="#754699"/><stop offset=".893" stop-color="#C572E6"/><stop offset="1" stop-color="#6C3C92"/></linearGradient><linearGradient id="c" x1="64" x2="64" y1="16" y2="108" gradientUnits="userSpaceOnUse"><stop stop-color="#fff"/><stop offset="1" stop-color="#FED0FF"/></linearGradient><linearGradient id="d" x1="71.448" x2="56.182" y1="54.353" y2="69.619" gradientUnits="userSpaceOnUse"><stop offset=".21" stop-color="#C061CB"/><stop offset="1" stop-color="#EAB2DE"/></linearGradient><linearGradient id="e" x1="71.448" x2="56.182" y1="54.353" y2="69.619" gradientUnits="userSpaceOnUse"><stop offset=".26" stop-color="#613583"/><stop offset="1" stop-color="#DC8ADD"/></linearGradient><radialGradient id="b" cx="0" cy="0" r="1" gradientTransform="matrix(0 63 -65.7391 0 64 56)" gradientUnits="userSpaceOnUse"><stop offset=".755" stop-color="#742B91"/><stop offset=".955" stop-color="#AE5AB8"/></radialGradient></defs></svg>