<svg xmlns="http://www.w3.org/2000/svg" width="16" height="16" fill="none"><g clip-path="url(#a)"><path fill="#000" fill-rule="evenodd" d="M10.909.548A8 8 0 1 0 8.66 15.973l.212-.018c.289-.024.562-.185.734-.418a.976.976 0 0 0-.869-1.55l-.24.02A6.027 6.027 0 1 1 14.028 8V11.1a.932.932 0 0 1-1.864 0V7.945a4.165 4.165 0 1 0-1.942 3.578A2.905 2.905 0 0 0 16 11.1V7.945A8 8 0 0 0 10.909.548M8.6 8.134a1.236 1.236 0 1 0-1.219-.007l-.755 2.055h2.727z" clip-rule="evenodd"/></g><defs><clipPath id="a"><path fill="#fff" d="M0 0h16v16H0z"/></clipPath></defs></svg>