<svg xmlns="http://www.w3.org/2000/svg" width="128" height="128" fill="none"><path fill="#DEDDDA" d="M8 37a9 9 0 0 1 9-9h94a9 9 0 0 1 9 9v70a9 9 0 0 1-9 9H17a9 9 0 0 1-9-9z"/><rect width="112" height="88" x="8" y="26" fill="#F6F5F4" rx="9"/><mask id="a" width="112" height="88" x="8" y="26" maskUnits="userSpaceOnUse" style="mask-type:alpha"><rect width="112" height="88" x="8" y="26" fill="#fff" rx="9"/></mask><g mask="url(#a)"><path fill="#000" fill-opacity=".1" fill-rule="evenodd" d="m64 56.586 56.707 56.707-1.414 1.414L64 59.414 8.707 114.707l-1.414-1.414z" clip-rule="evenodd"/><path fill="#000" fill-opacity=".1" d="M54.392 76.933c5.394 5.09 13.822 5.09 19.217 0L135 19H-7z"/><path fill="#fff" d="M55.78 75.27a12 12 0 0 0 16.44 0L131 20H-3z"/></g><path fill="url(#b)" d="M94 72c0 16.569-13.431 30-30 30-16.568 0-30-13.431-30-30 0-16.568 13.432-30 30-30 16.569 0 30 13.432 30 30"/><path fill="url(#c)" fill-rule="evenodd" d="M64 98c14.36 0 26-11.64 26-26S78.36 46 64 46 38 57.64 38 72s11.64 26 26 26m0 4c16.569 0 30-13.431 30-30 0-16.568-13.431-30-30-30-16.568 0-30 13.432-30 30 0 16.569 13.432 30 30 30" clip-rule="evenodd"/><path fill="url(#d)" fill-rule="evenodd" d="M64 98c14.36 0 26-11.64 26-26S78.36 46 64 46 38 57.64 38 72s11.64 26 26 26m0 4c16.569 0 30-13.431 30-30 0-16.568-13.431-30-30-30-16.568 0-30 13.432-30 30 0 16.569 13.432 30 30 30" clip-rule="evenodd"/><path fill="#fff" fill-rule="evenodd" d="M69.818 57.095a16 16 0 1 0-4.495 30.85l1.332-.11v-3.96l-1.658.138a12.054 12.054 0 1 1 11.058-12.01v6.196a1.863 1.863 0 0 1-3.726 0v-6.308a8.33 8.33 0 1 0-3.884 7.154A5.81 5.81 0 0 0 80 78.199v-6.308a16 16 0 0 0-10.182-14.796M65.2 72.268a2.472 2.472 0 1 0-2.439-.014l-1.51 4.11h5.454z" clip-rule="evenodd"/><defs><linearGradient id="b" x1="64" x2="64" y1="42" y2="102" gradientUnits="userSpaceOnUse"><stop stop-color="#75ADFB"/><stop offset=".66" stop-color="#1E76F2"/><stop offset="1" stop-color="#2A5798"/></linearGradient><linearGradient id="c" x1="64" x2="64" y1="108.5" y2="72" gradientUnits="userSpaceOnUse"><stop stop-color="#89BCFF"/><stop offset="1" stop-color="#89BCFF" stop-opacity="0"/></linearGradient><linearGradient id="d" x1="64" x2="64" y1="20" y2="72" gradientUnits="userSpaceOnUse"><stop stop-color="#225192"/><stop offset="1" stop-color="#225192" stop-opacity="0"/></linearGradient></defs></svg>