<svg xmlns="http://www.w3.org/2000/svg" width="128" height="128" fill="none"><path fill="url(#a)" fill-rule="evenodd" d="M111.967 61H16.003q0 2.976-.003 5.951v16.486q0 2.047.002 4.093c.002 5.457.004 10.914-.002 16.37-.03 1.62.23 3.209.713 4.723l.014.039a16 16 0 0 0 .969 2.364l.029.06q.112.245.234.486a16 16 0 0 0 1.805 2.637 16 16 0 0 0 3.892 3.326q.58.36 1.19.67a14.8 14.8 0 0 0 5.62 1.606q.044.004.086.01.049.007.098.011.37.028.74.039c.357.019.713.032 1.067.022l.078-.006c.45-.016.9-.047 1.344-.106 2.157-.252 4.24-.94 6.121-2.023l.266-.153c.59-.316 1.172-.647 1.734-1.002l.002-.002L72 99.281l32-18.474a16 16 0 0 0 6.083-6.27c1.407-2.614 1.884-5.537 1.884-8.531-.077-1.708 0-5.006 0-5.006" clip-rule="evenodd"/><path fill="url(#b)" d="M111.967 66.006V61s-.077 3.298 0 5.006"/><mask id="c" width="97" height="106" x="15" y="8" maskUnits="userSpaceOnUse" style="mask-type:alpha"><path fill="#F6F5F4" fill-rule="evenodd" d="M32.377 8.006C23.397 7.796 16.002 15.016 16 24v41.9l.014.03c-.02 10.656-.003 21.314-.014 31.97-.15 8.053 6.603 15.428 14.65 15.932 3.202.357 6.302-.538 9.127-1.973.075-.036.148-.062.223-.101l.266-.153c.59-.316 1.172-.647 1.734-1.001l.002-.002L104 74.752c7.048-3.897 10.057-13.431 6.471-20.652-1.64-3.746-4.937-6.356-8.471-8.215-.082-.033-.165-.06-.248-.09L40 10.145a16 16 0 0 0-7.623-2.14Z" clip-rule="evenodd"/></mask><g mask="url(#c)"><path fill="url(#d)" d="M8 8h110v112H8z"/><circle cx="104" cy="77" r="71" fill="url(#e)" opacity=".25"/><ellipse cx="105.5" cy="77" fill="url(#f)" opacity=".25" rx="45.5" ry="45"/><circle cx="111" cy="77" r="26" fill="url(#g)" opacity=".25"/><path fill="url(#h)" d="M119 78H7v49h112z"/></g><mask id="i" width="97" height="112" x="15" y="8" maskUnits="userSpaceOnUse" style="mask-type:alpha"><path fill="#000" d="M16 24c.002-8.983 7.396-16.205 16.377-15.994 2.68.063 5.301.798 7.623 2.139l61.752 35.65.102.037q.074.025.146.053c3.534 1.86 6.831 4.469 8.471 8.215 1.162 2.339 1.631 4.92 1.496 7.475v4.43c0 2.995-.477 5.918-1.884 8.532a16 16 0 0 1-6.083 6.27L42.002 116.6l-.002.002c-.562.355-1.144.686-1.734 1.002l-.266.153a16 16 0 0 1-6.121 2.023c-.445.059-.893.09-1.344.106l-.078.006c-.354.01-.71-.003-1.066-.022a15 15 0 0 1-.74-.039q-.05-.004-.099-.011l-.085-.01a14.8 14.8 0 0 1-5.621-1.606q-.61-.31-1.19-.67a16 16 0 0 1-3.892-3.326 16 16 0 0 1-1.805-2.637 16 16 0 0 1-.263-.546 16 16 0 0 1-.97-2.364l-.013-.039A14.7 14.7 0 0 1 16 103.9l.003-5.334A14 14 0 0 1 16 97.9z"/></mask><g mask="url(#i)"><path fill="#3D3846" fill-rule="evenodd" d="M44 54h10a3 3 0 0 1 3 3v61H44v-14a2 2 0 0 0-2-2H-5v-4h47a2 2 0 0 0 2-2V80a2 2 0 0 0-2-2H-5v-4h47a2 2 0 0 0 2-2zm3 4a1 1 0 0 1 1-1h5a1 1 0 0 1 1 1v4a1 1 0 0 1-1 1h-5a1 1 0 0 1-1-1zm1 10a1 1 0 0 0-1 1v4a1 1 0 0 0 1 1h5a1 1 0 0 0 1-1v-4a1 1 0 0 0-1-1zm-1 12a1 1 0 0 1 1-1h5a1 1 0 0 1 1 1v4a1 1 0 0 1-1 1h-5a1 1 0 0 1-1-1zm1 10a1 1 0 0 0-1 1v4a1 1 0 0 0 1 1h5a1 1 0 0 0 1-1v-4a1 1 0 0 0-1-1zm-1 12a1 1 0 0 1 1-1h5a1 1 0 0 1 1 1v4a1 1 0 0 1-1 1h-5a1 1 0 0 1-1-1z" clip-rule="evenodd"/><path fill="url(#j)" d="M-5 54h49v18a2 2 0 0 1-2 2H-5z"/><path fill="url(#k)" d="M-5 78h47a2 2 0 0 1 2 2v16a2 2 0 0 1-2 2H-5z"/><path fill="url(#l)" d="M-5 102h47a2 2 0 0 1 2 2v16a2 2 0 0 1-2 2H-5z"/></g><defs><linearGradient id="a" x1="16" x2="112" y1="72" y2="72" gradientUnits="userSpaceOnUse"><stop stop-color="#0E8266"/><stop offset=".086" stop-color="#2EC27E"/><stop offset=".27" stop-color="#0E8266"/><stop offset=".645" stop-color="#26A269"/><stop offset=".862" stop-color="#E5A50A"/><stop offset=".926" stop-color="#E66100"/><stop offset="1" stop-color="#C64600"/></linearGradient><linearGradient id="b" x1="16" x2="112" y1="72" y2="72" gradientUnits="userSpaceOnUse"><stop stop-color="#0E8266"/><stop offset=".086" stop-color="#2EC27E"/><stop offset=".27" stop-color="#0E8266"/><stop offset=".645" stop-color="#26A269"/><stop offset=".862" stop-color="#E5A50A"/><stop offset=".926" stop-color="#E66100"/><stop offset="1" stop-color="#C64600"/></linearGradient><linearGradient id="d" x1="112" x2="19.33" y1="92.354" y2="109.922" gradientUnits="userSpaceOnUse"><stop stop-color="#FFA348"/><stop offset=".475" stop-color="#C061CB"/><stop offset="1" stop-color="#1C71D8"/></linearGradient><linearGradient id="h" x1="99.5" x2="18.749" y1="78" y2="61.802" gradientUnits="userSpaceOnUse"><stop stop-color="#F8E45C"/><stop offset=".513" stop-color="#2EC27E"/></linearGradient><linearGradient id="j" x1="19.5" x2="19.5" y1="54" y2="74" gradientUnits="userSpaceOnUse"><stop stop-opacity=".5"/><stop offset="1" stop-color="#fff" stop-opacity=".2"/></linearGradient><linearGradient id="k" x1="19.5" x2="19.5" y1="78" y2="98" gradientUnits="userSpaceOnUse"><stop stop-opacity=".5"/><stop offset="1" stop-color="#fff" stop-opacity=".2"/></linearGradient><linearGradient id="l" x1="19.5" x2="19.5" y1="102" y2="122" gradientUnits="userSpaceOnUse"><stop stop-opacity=".5"/><stop offset="1" stop-color="#fff" stop-opacity=".2"/></linearGradient><radialGradient id="e" cx="0" cy="0" r="1" gradientTransform="matrix(0 71 -71 0 104 77)" gradientUnits="userSpaceOnUse"><stop stop-color="#F8E45C" stop-opacity="0"/><stop offset="1" stop-color="#F8E45C"/></radialGradient><radialGradient id="f" cx="0" cy="0" r="1" gradientTransform="matrix(0 45 -45.5 0 105.5 77)" gradientUnits="userSpaceOnUse"><stop stop-color="#F8E45C" stop-opacity="0"/><stop offset="1" stop-color="#F8E45C"/></radialGradient><radialGradient id="g" cx="0" cy="0" r="1" gradientTransform="rotate(90 17 94)scale(26)" gradientUnits="userSpaceOnUse"><stop stop-color="#F8E45C" stop-opacity="0"/><stop offset="1" stop-color="#F8E45C"/></radialGradient></defs></svg>