<svg xmlns="http://www.w3.org/2000/svg" width="16" height="16" fill="none"><path fill="#000" fill-rule="evenodd" d="M5.732 5.217c-.02.129-.006.428.097.849-.972-.797-2.2-.77-3.554-.517q-.643.12-1.275.08.325 1.23.692 2.01A5.55 5.55 0 0 0 3.1 9.445c.146.118.63.35 1.41.486q-.13.044-.245.093c-1.197.515-1.72 1.654-2.087 3.015a5.1 5.1 0 0 1-.48 1.183q1.249.24 2.11.248a5.55 5.55 0 0 0 2.24-.486c.25-.119 1.046-.797 1.718-2.202q.12-.251.22-.537.493 1.406 1.045 2.046c.85.988 2.093 1.145 3.501 1.088a5.1 5.1 0 0 1 1.273.104q-.144-1.264-.396-2.088a5.55 5.55 0 0 0-1.134-1.99c-.115-.124-.488-.38-1.11-.61q.542-.055.925-.187c1.231-.425 1.837-1.524 2.303-2.853q.216-.618.566-1.145-1.228-.332-2.086-.402a5.55 5.55 0 0 0-2.27.32c-.108.042-.321.176-.59.418.235-1.267-.41-2.333-1.32-3.395a5.1 5.1 0 0 1-.708-1.064q-.904.897-1.393 1.604a5.55 5.55 0 0 0-.86 2.125M8 10a1.5 1.5 0 1 0 0-3 1.5 1.5 0 0 0 0 3" clip-rule="evenodd"/></svg>