<svg xmlns="http://www.w3.org/2000/svg" width="25" height="24" viewBox="0 0 25 24"><defs><linearGradient id="a" x1="-5.112%" x2="16.354%" y1="-32.152%" y2="103.502%"><stop offset="0%" stop-color="currentColor" stop-opacity="0"/><stop offset="49.5%" stop-color="currentColor" stop-opacity=".3"/><stop offset="100%" stop-color="currentColor" stop-opacity=".3"/></linearGradient></defs><g fill="none" fill-rule="evenodd"><path fill="url(#a)" fill-rule="nonzero" d="M12.6511195,5.83908554 C12.6355891,5.83908554 12.6201735,5.8418011 12.6055971,5.8471875 C12.5920721,5.85200312 12.5795944,5.85938714 12.5688434,5.8689375 C12.5592444,5.87744677 12.5519845,5.88829426 12.5477613,5.9004375 C12.5438086,5.91177456 12.5432252,5.92402282 12.5460822,5.9356875 L17.3298509,24 C19.6456893,22.9947756 21.6022313,21.3049541 22.9393658,19.1551875 L12.7458956,5.8790625 C12.735179,5.8660395 12.7213893,5.85591946 12.7057837,5.849625 C12.6885821,5.84224487 12.6700039,5.83866411 12.6513061,5.83908554"/><path fill="currentColor" fill-rule="nonzero" d="M12.4179106,0 C5.55970161,0 0,5.601 0,12.51 C-0.000315063334,14.859749 0.65677959,17.1622432 1.89626877,19.154625 L12.249627,5.67 C12.3238807,5.5725 12.5113807,5.5725 12.5854479,5.67 L22.9393658,19.1551875 C24.1788026,17.1626344 24.835821,14.8600539 24.835821,12.5101875 C24.835821,5.600625 19.2763061,0 12.4179106,0"/></g></svg>