<svg xmlns="http://www.w3.org/2000/svg" width="24" height="24" viewBox="0 0 24 24"><path fill="currentColor" d="M4.5,3 C2.0332035,3 0,5.0332035 0,7.5 L0,16.5 C0,18.9667965 2.0332035,21 4.5,21 L19.5,21 C21.9667965,21 24,18.9667965 24,16.5 L24,7.5 C24,5.0332035 21.9667965,3 19.5,3 L4.5,3 Z M5.7011715,6 L18.292968,6 L12.416016,9.9199215 C12.1582035,10.089843 11.8417965,10.089843 11.583984,9.9199215 L5.7011715,6 Z M3,7.7988285 L9.9199215,12.416016 C11.1738285,13.253907 12.8261715,13.253907 14.0800785,12.416016 L21,7.7988285 L21,16.5 C21,17.355468 20.355468,18 19.5,18 L4.5,18 C3.644532,18 3,17.355468 3,16.5 L3,7.7988285 Z"/></svg>