<svg xmlns="http://www.w3.org/2000/svg" width="25" height="24" viewBox="0 0 25 24"><path fill="currentColor" fill-rule="evenodd" d="M12.430916,0 C5.55687023,0 0,5.4999375 0,12.304125 C0,17.743125 3.56049618,22.3471875 8.5,23.9765625 C9.11755725,24.0991875 9.34370229,23.7118125 9.34370229,23.386125 C9.34370229,23.1009375 9.32347328,22.123125 9.32347328,21.1044375 C5.86545802,21.8379375 5.14522901,19.637625 5.14522901,19.637625 C4.58950382,18.2116875 3.76622137,17.845125 3.76622137,17.845125 C2.63435115,17.091375 3.84866412,17.091375 3.84866412,17.091375 C5.10400763,17.1729375 5.76278626,18.354375 5.76278626,18.354375 C6.8740458,20.2284375 8.66469466,19.6989375 9.38492366,19.372875 C9.48778626,18.5784375 9.81736641,18.0285 10.1671756,17.722875 C7.40916031,17.4376875 4.50744275,16.3785 4.50744275,11.6521875 C4.50744275,10.3078125 5.0009542,9.20775 5.78320611,8.3521875 C5.65973282,8.0465625 5.22748092,6.783375 5.90687023,5.0926875 C5.90687023,5.0926875 6.95648855,4.7668125 9.3230916,6.3556875 C10.3363164,6.08632259 11.3812549,5.94933057 12.430916,5.94825 C13.4805344,5.94825 14.5505725,6.0909375 15.5385496,6.3556875 C17.9055344,4.7668125 18.9551527,5.0926875 18.9551527,5.0926875 C19.634542,6.783375 19.2019084,8.04675 19.078626,8.3521875 C19.8812977,9.20775 20.3545802,10.3078125 20.3545802,11.6521875 C20.3545802,16.3785 17.4528626,17.41725 14.6742366,17.722875 C15.1270992,18.109875 15.5179389,18.8431875 15.5179389,20.004375 C15.5179389,21.654375 15.4977099,22.9786875 15.4977099,23.3859375 C15.4977099,23.7118125 15.7240458,24.0991875 16.3414122,23.9769375 C21.280916,22.3468125 24.8414671,17.743125 24.8414671,12.304125 C24.8616412,5.4999375 19.2843511,0 12.4311069,0 L12.430916,0 Z"/></svg>