<svg xmlns="http://www.w3.org/2000/svg" width="20" height="24" viewBox="0 0 20 24"><path fill="currentColor" d="M17.7447619,0 C12.672381,0 11.7209524,7.1113125 14.5742857,7.1113125 C17.4272381,7.1113125 22.8169524,0 17.7445714,0 L17.7447619,0 Z M9.32266667,6.2300625 C10.8419048,6.321375 12.5085714,0.523125 9.65333333,0.887625 C6.79885714,1.2525 7.80285714,6.13875 9.32266667,6.2300625 M2.36,9.8330625 C3.44057143,9.364875 2.4992381,4.7855625 0.661904762,6.0343125 C-1.17466667,7.283625 1.27961905,10.3010625 2.36,9.8330625 M5.40457143,7.43625 C6.69085714,7.1780625 6.76133333,1.9845 4.46742857,2.9161875 C2.17333333,3.8480625 4.11942857,7.6948125 5.40457143,7.43625 M12.1211429,19.059 C12.3493333,20.774625 10.8424762,21.6219375 9.36685714,20.515875 C4.66895238,16.995 17.1451429,15.2385 16.3228571,10.428375 C15.6401905,6.43575 3.1952381,7.6648125 1.77790476,13.912125 C0.818666667,18.138 5.72647619,24 10.847619,24 C13.3670476,24 16.2729524,21.7606875 16.8165714,18.924 C17.2318095,16.7608125 11.9306667,17.627625 12.1213333,19.059 L12.1211429,19.059 Z"/></svg>