<svg xmlns="http://www.w3.org/2000/svg" width="19" height="24" viewBox="0 0 19 24"><path fill="currentColor" d="M4.74623408 19.6282971C3.54146715 19.6282971 2.59614176 19.4740095 1.90890843 19.1660965 1.22167509 18.8581834.729782015 18.4380311.432891816 17.9049774.136001617 17.3722547-.00839497959 16.7604017.000376776283 16.0694184.00881115693 15.3787661.105975222 14.6420925.293218472 13.8593974L3.52493576.599271604 7.46885215 0 3.93181028 14.3825185C3.86366049 14.6821543 3.82587446 14.9569584 3.81744008 15.2065997 3.80866833 15.456241 3.85556348 15.6770776 3.9574508 15.8684472 4.05933812 16.0601479 4.23308636 16.2141044 4.4790329 16.3303167 4.72497944 16.4471913 5.06842742 16.5220174 5.50971422 16.5551264L4.74623408 19.6269727M18.9969636 11.3643086C18.9969636 12.5797373 18.793189 13.6918662 18.3859771 14.6983777 17.9787652 15.7058824 17.4146738 16.5753228 16.6957272 17.3076923 15.974419 18.0403929 15.1093889 18.6105286 14.1002996 19.0184306 13.0908729 19.4260015 11.9923792 19.6302836 10.8051558 19.6302836 10.2282441 19.6302836 9.65133249 19.5802892 9.07475823 19.4803002L7.92970671 24 4.16392444 24 8.38786227 6.72045028C9.06598647 6.52080344 9.84228687 6.34201523 10.7160887 6.18342346 11.5895532 6.02549387 12.5355533 5.94636354 13.5534144 5.94636354 14.5031256 5.94636354 15.3219353 6.08806975 16.0088312 6.37082 16.6960646 6.65390134 17.2598186 7.04094471 17.7024549 7.53195012 18.1434043 8.02328661 18.4696461 8.59772652 18.6821925 9.25526984 18.8937268 9.91314424 19 10.6160468 19 11.3653018M9.76334106 16.4842733C10.0514595 16.5511533 10.4077277 16.5842622 10.8318084 16.5842622 11.4934012 16.5842622 12.095616 16.4637457 12.6384527 16.2220505 13.1812895 15.9810175 13.6434935 15.6436376 14.0254023 15.2105728 14.4069737 14.7778391 14.7035265 14.2580289 14.9160729 13.6498179 15.1279445 13.0422691 15.2342177 12.3724754 15.2342177 11.6397749 15.2342177 10.9242909 15.072615 10.3160799 14.750759 9.81679726 14.4282283 9.31751462 13.8685228 9.06754221 13.0713052 9.06754221 12.528131 9.06754221 12.0193692 9.1175367 11.5446823 9.21752566L9.76334106 16.4842733"/></svg>