<svg xmlns="http://www.w3.org/2000/svg" width="23" height="24" viewBox="0 0 23 24"><path fill="currentColor" d="M22.7296098,5.313375 C22.378065,2.7346875 20.100878,0.7025625 17.4012764,0.308625 C16.9457642,0.24225 15.2202033,0 11.2226911,0 L11.1927724,0 C7.1943252,0 6.3365935,0.24225 5.8810813,0.308625 C3.25665041,0.6915 0.860162602,2.5175625 0.278617886,5.1268125 C-0.00112195122,6.41175 -0.0310406504,7.836375 0.0209430894,9.1430625 C0.0949918699,11.0175 0.109390244,12.8881875 0.28198374,14.754375 C0.40141115,15.9945886 0.609380834,17.2246182 0.904292683,18.435 C1.45704065,20.671125 3.69439837,22.5320625 5.88669106,23.29125 C8.23630049,24.0832082 10.7573979,24.2145243 13.1761951,23.6709375 C13.441803,23.6099647 13.705025,23.5389769 13.9653008,23.458125 C14.5524553,23.2738125 15.2411463,23.06775 15.7473333,22.7055 C15.761399,22.6953913 15.7700245,22.6793389 15.7707073,22.662 L15.7707073,20.853375 C15.7705188,20.8371473 15.7628564,20.8219192 15.7499512,20.812125 C15.7435311,20.8072252 15.7361325,20.8037716 15.7282602,20.802 C15.7203747,20.8002735 15.7122106,20.8002735 15.7043252,20.802 C14.1540088,21.1673174 12.5665392,21.3503627 10.9739919,21.3474375 C8.23250407,21.3474375 7.49519512,20.063625 7.28389431,19.5290625 C7.11441661,19.067598 7.00664467,18.5856567 6.96339024,18.0958125 C6.96255527,18.0790272 6.96978497,18.0628555 6.9828374,18.0523125 C6.99604596,18.0419228 7.01330871,18.0382532 7.02958537,18.042375 C8.55415547,18.4051831 10.1157734,18.5881732 11.6826911,18.587625 C12.0596667,18.587625 12.4355203,18.587625 12.8124959,18.577875 C14.3888374,18.5341875 16.0504472,18.4546875 17.6013577,18.1558125 C17.640065,18.148125 17.6787724,18.1415625 17.7118699,18.1318125 C20.1582846,17.668125 22.4863333,16.2129375 22.723065,12.5281875 C22.7318537,12.38325 22.7539187,11.0086875 22.7539187,10.858125 C22.7550407,10.346625 22.9209024,7.2290625 22.7296098,5.3135625 L22.7296098,5.313375 Z M18.9643415,14.5078125 L16.3918943,14.5078125 L16.3918943,8.2903125 C16.3918943,6.9811875 15.8391463,6.3136875 14.7149512,6.3136875 C13.478935,6.3136875 12.8599919,7.1034375 12.8599919,8.66325 L12.8599919,12.0665625 L10.303065,12.0665625 L10.303065,8.6634375 C10.303065,7.1034375 9.68281301,6.3136875 8.44698374,6.3136875 C7.32933333,6.3136875 6.77097561,6.9811875 6.76985366,8.290125 L6.76985366,14.5078125 L4.1998374,14.5078125 L4.1998374,8.1015 C4.1998374,6.792625 4.53847967,5.7526875 5.21576423,4.9816875 C5.91436585,4.21275 6.83081301,3.817875 7.96828455,3.817875 C9.2850813,3.817875 10.279878,4.317375 10.9433252,5.315625 L11.5833984,6.37575 L12.2245935,5.315625 C12.8878537,4.317375 13.8826504,3.817875 15.1972033,3.817875 C16.3335528,3.817875 17.25,4.21275 17.9508455,4.9816875 C18.6281301,5.7519375 18.9667724,6.791875 18.9667724,8.1015 L18.9645285,14.5078125 L18.9643415,14.5078125 Z"/></svg>