<svg xmlns="http://www.w3.org/2000/svg" width="24" height="24" viewBox="0 0 24 24"><path fill="currentColor" d="M0.63225,0.549375 L0.63225,23.450625 L2.28,23.450625 L2.28,24 L0,24 L0,0 L2.28,0 L2.28,0.549375 L0.63225,0.549375 Z M7.6753125,7.809375 L7.6753125,8.96775 L7.70775,8.96775 C8.0169375,8.5246875 8.3908125,8.1830625 8.8246875,7.9430625 C9.2585625,7.6985625 9.761625,7.5785625 10.3246875,7.5785625 C10.8646875,7.5785625 11.3585625,7.6846875 11.806125,7.89225 C12.253875,8.1 12.5908125,8.473875 12.826125,9 C13.08,8.626125 13.426125,8.293875 13.86,8.00775 C14.293875,7.721625 14.810625,7.578375 15.406125,7.578375 C15.858625,7.578375 16.278625,7.6338125 16.666125,7.7446875 C17.053875,7.8553125 17.381625,8.0308125 17.6585625,8.2753125 C17.9353125,8.52 18.14775,8.833875 18.3046875,9.226125 C18.4569375,9.618375 18.5353125,10.0891875 18.5353125,10.6430625 L18.5353125,16.3708125 L16.186125,16.3708125 L16.186125,11.52 C16.186125,11.233875 16.17675,10.961625 16.153875,10.70775 C16.1308125,10.453875 16.0708125,10.23225 15.973875,10.04775 C15.8739073,9.8593432 15.7216065,9.7038518 15.5353125,9.6 C15.3414375,9.489375 15.078375,9.433875 14.7508125,9.433875 C14.418375,9.433875 14.1508125,9.498375 13.94775,9.62325 C13.7446875,9.75225 13.5830625,9.913875 13.46775,10.1214375 C13.35225,10.3246875 13.273875,10.5553125 13.2369375,10.8185625 C13.1986511,11.0783415 13.178602,11.3404826 13.1769375,11.6030625 L13.1769375,16.3708125 L10.8275625,16.3708125 L10.8275625,11.5708125 C10.8284283,11.3199405 10.8223009,11.0690931 10.8091875,10.8185625 C10.8011785,10.5828184 10.7527893,10.3501951 10.666125,10.1308125 C10.5846107,9.92328303 10.4391506,9.74708914 10.2508125,9.62775 C10.0569375,9.5030625 9.7753125,9.438375 9.3969375,9.438375 C9.2863125,9.438375 9.1385625,9.4614375 8.9585625,9.51225 C8.7785625,9.5630625 8.5985625,9.6553125 8.42775,9.793875 C8.2569375,9.93225 8.1091875,10.1308125 7.9891875,10.3891875 C7.8691875,10.64775 7.8091875,10.9891875 7.8091875,11.4091875 L7.8091875,16.3753125 L5.46,16.3753125 L5.46,7.809375 L7.6753125,7.809375 Z M23.36775,23.4508125 L23.36775,0.5491875 L21.72,0.5491875 L21.72,0 L24,0 L24,24 L21.72,24 L21.72,23.4508125 L23.36775,23.4508125 Z"/></svg>