<svg xmlns="http://www.w3.org/2000/svg" width="154" height="146" fill="none"><path stroke="#fff" stroke-opacity=".6" stroke-width="2" d="M77 144.182c39.539 0 71.591-32.053 71.591-71.591C148.591 33.052 116.539 1 77 1S5.41 33.052 5.41 72.59 37.462 144.182 77 144.182Z"/><path stroke="#fff" stroke-opacity=".6" stroke-width="2" d="M118.874 5.811H35.126c-5.781 0-10.468 4.272-10.468 9.54V129.83c0 5.269 4.687 9.54 10.468 9.54h83.748c5.781 0 10.468-4.271 10.468-9.54V15.351c0-5.268-4.687-9.54-10.468-9.54Z"/><path stroke="#fff" stroke-opacity=".6" stroke-width="2" d="M129.433 10.624H24.567a9.533 9.533 0 0 0-9.534 9.534v104.866c0 5.265 4.269 9.534 9.534 9.534h104.866c5.265 0 9.534-4.269 9.534-9.534V20.158a9.534 9.534 0 0 0-9.534-9.534Z"/><path stroke="#fff" stroke-opacity=".6" stroke-width="2" d="M134.24 29.874H19.76c-5.268 0-9.54 4.687-9.54 10.468v83.748c0 5.781 4.272 10.468 9.54 10.468h114.48c5.268 0 9.54-4.687 9.54-10.468V40.342c0-5.781-4.272-10.468-9.54-10.468Z"/><path stroke="#fff" stroke-opacity=".6" stroke-width="4" d="M0 136.357h154"/></svg>