<svg width="300" height="200" fill="none" xmlns="http://www.w3.org/2000/svg"><path fill="url(#a)" d="M0 0h300v200H0z"/><path d="M150 171.182c39.539 0 71.591-32.053 71.591-71.591C221.591 60.052 189.539 28 150 28c-39.539 0-71.59 32.052-71.59 71.59 0 39.539 32.051 71.592 71.59 71.592Z" stroke="#fff" stroke-opacity=".6" stroke-width="2"/><path d="M191.874 32.811h-83.748c-5.781 0-10.468 4.272-10.468 9.54V156.83c0 5.269 4.687 9.54 10.468 9.54h83.748c5.781 0 10.468-4.271 10.468-9.54V42.351c0-5.268-4.687-9.54-10.468-9.54Z" stroke="#fff" stroke-opacity=".6" stroke-width="2"/><path d="M202.433 37.624H97.567a9.533 9.533 0 0 0-9.534 9.534v104.866c0 5.265 4.269 9.534 9.534 9.534h104.866c5.265 0 9.534-4.269 9.534-9.534V47.158a9.534 9.534 0 0 0-9.534-9.534Z" stroke="#fff" stroke-opacity=".6" stroke-width="2"/><path d="M207.24 56.874H92.76c-5.268 0-9.54 4.687-9.54 10.468v83.748c0 5.781 4.272 10.468 9.54 10.468h114.48c5.268 0 9.54-4.687 9.54-10.468V67.342c0-5.781-4.272-10.468-9.54-10.468Z" stroke="#fff" stroke-opacity=".6" stroke-width="2"/><path d="M73 163.357h154" stroke="#fff" stroke-opacity=".6" stroke-width="4"/><rect x="9" y="9" width="282" height="183" rx="3" stroke="#fff" stroke-opacity=".6" stroke-width="2"/><defs><linearGradient id="a" x1="-10" y1="-11" x2="313" y2="209" gradientUnits="userSpaceOnUse"><stop stop-color="#2668E8"/><stop offset="1" stop-color="#70A0FF"/></linearGradient></defs></svg>