<svg width="128" height="128" fill="none" xmlns="http://www.w3.org/2000/svg"><path fill-rule="evenodd" clip-rule="evenodd" d="M64 0C28.668 0 0 28.668 0 64s28.668 64 64 64c35.263 0 64-28.668 64-64S99.263 0 64 0Zm42.273 29.501a54.413 54.413 0 0 1 12.356 34.013c-1.805-.347-19.852-4.026-38.039-1.735-.416-.903-.764-1.875-1.18-2.846a162.53 162.53 0 0 0-3.61-7.913c20.13-8.191 29.293-19.992 30.473-21.519ZM64 9.441c13.883 0 26.586 5.205 36.234 13.743-.971 1.389-9.232 12.426-28.668 19.714-8.954-16.451-18.88-29.918-20.408-32C55.254 9.926 59.558 9.44 64 9.44Zm-23.254 5.136c1.458 1.944 11.176 15.48 20.27 31.584-25.545 6.802-48.105 6.663-50.534 6.663 3.54-16.937 14.993-31.028 30.264-38.247ZM9.302 64.069v-1.666c2.36.07 28.876.417 56.156-7.774 1.596 3.054 3.054 6.178 4.442 9.302-.694.208-1.458.416-2.152.624C39.566 73.65 24.573 98.5 23.323 100.581c-8.677-9.648-14.021-22.49-14.021-36.512ZM64 118.698c-12.633 0-24.295-4.303-33.527-11.522.972-2.013 12.078-23.393 42.898-34.152.139-.07.208-.07.347-.139 7.705 19.922 10.829 36.651 11.662 41.44-6.595 2.846-13.814 4.373-21.38 4.373Zm30.473-9.37c-.555-3.332-3.47-19.298-10.62-38.942 17.145-2.707 32.138 1.736 34.012 2.36-2.36 15.202-11.106 28.321-23.392 36.582Z" fill="#fff"/></svg>