<svg width="133" height="128" fill="none" xmlns="http://www.w3.org/2000/svg"><path d="m130.707 50.67-.187-.477-18.091-47.215a4.713 4.713 0 0 0-1.862-2.242 4.844 4.844 0 0 0-5.537.297 4.841 4.841 0 0 0-1.605 2.436L91.209 40.843H41.745L29.53 3.468a4.747 4.747 0 0 0-1.606-2.443A4.844 4.844 0 0 0 22.387.73a4.755 4.755 0 0 0-1.862 2.242L2.4 50.165l-.18.478a33.594 33.594 0 0 0 11.143 38.826l.062.049.167.117 27.559 20.639 13.634 10.319 8.305 6.27a5.583 5.583 0 0 0 6.755 0l8.305-6.27 13.635-10.319 27.725-20.763.069-.056a33.607 33.607 0 0 0 11.129-38.785Z" fill="#fff"/></svg>