<svg xmlns="http://www.w3.org/2000/svg" width="105" height="128" fill="none"><path fill="#fff" d="M93.16 0C66.53 0 61.535 37.927 76.515 37.927 91.493 37.927 119.789 0 93.159 0ZM48.944 33.227C56.92 33.714 65.67 2.79 50.68 4.734 35.694 6.68 40.965 32.74 48.944 33.227M12.39 52.443c5.673-2.497.731-26.92-8.915-20.26-9.642 6.663 3.243 22.756 8.915 20.26M28.374 39.66c6.753-1.377 7.123-29.076-4.92-24.107-12.044 4.97-1.827 25.486 4.92 24.107m35.262 61.988c1.198 9.15-6.713 13.669-14.46 7.77-24.664-18.778 40.836-28.146 36.519-53.8-3.584-21.294-68.92-14.739-76.361 18.58C4.298 96.736 30.064 128 56.95 128c13.227 0 28.483-11.943 31.337-27.072 2.18-11.537-25.651-6.914-24.65.72Z"/></svg>