<svg xmlns="http://www.w3.org/2000/svg" width="128" height="128" fill="none"><path fill="#fff" d="M3.372 2.93v122.14h8.788V128H0V0h12.16v2.93zm37.563 38.72v6.178h.173c1.649-2.363 3.643-4.185 5.957-5.465 2.314-1.304 4.997-1.944 8-1.944 2.88 0 5.514.566 7.901 1.673 2.388 1.108 4.185 3.102 5.44 5.908 1.354-1.994 3.2-3.766 5.514-5.292s5.07-2.29 8.246-2.29q3.62 0 6.72.887c2.068.59 3.816 1.526 5.293 2.83 1.476 1.305 2.609 2.979 3.446 5.071.812 2.092 1.23 4.603 1.23 7.557v30.548H86.326V61.44c0-1.526-.05-2.978-.172-4.332-.123-1.354-.443-2.536-.96-3.52a5.9 5.9 0 0 0-2.339-2.388c-1.034-.59-2.437-.886-4.184-.886-1.773 0-3.2.344-4.283 1.01-1.083.688-1.945 1.55-2.56 2.657-.616 1.084-1.034 2.314-1.231 3.718a30 30 0 0 0-.32 4.184v25.428h-12.53v-25.6a72 72 0 0 0-.098-4.012 11 11 0 0 0-.763-3.668 5.6 5.6 0 0 0-2.215-2.683c-1.034-.665-2.536-1.01-4.554-1.01-.59 0-1.378.123-2.338.394s-1.92.763-2.831 1.502c-.911.738-1.699 1.797-2.339 3.175-.64 1.379-.96 3.2-.96 5.44v26.486H29.12V41.65zm83.693 83.421V2.929h-8.788V0H128v128h-12.16v-2.929z"/></svg>