<svg xmlns="http://www.w3.org/2000/svg" width="64" height="64" fill="none"><path fill="#FF5233" d="M0 32C0 14.327 14.327 0 32 0s32 14.327 32 32-14.327 32-32 32S0 49.673 0 32"/><path fill="url(#a)" d="M9.35 34.069c-1.236 1.283-.36 3.476 1.388 3.476H40.86c1.748 0 2.624-2.193 1.388-3.476L27.187 18.44a1.913 1.913 0 0 0-2.776 0z"/><path fill="url(#b)" d="M20.634 38.077c-1.236 1.283-.36 3.477 1.388 3.477h33.01c1.749 0 2.624-2.194 1.388-3.477L39.915 20.949a1.913 1.913 0 0 0-2.776 0z"/><defs><linearGradient id="a" x1="39.588" x2="15.114" y1="31.308" y2="36.436" gradientUnits="userSpaceOnUse"><stop stop-color="#fff" stop-opacity=".3"/><stop offset="1" stop-color="#fff"/></linearGradient><linearGradient id="b" x1="53.321" x2="27.062" y1="34.861" y2="40.363" gradientUnits="userSpaceOnUse"><stop stop-color="#fff" stop-opacity=".3"/><stop offset="1" stop-color="#fff"/></linearGradient></defs></svg>